<svg width="220" height="220" viewBox="0 0 220 220" fill="none" xmlns="http://www.w3.org/2000/svg">
<g filter="url(#filter0_d_8_290)">
<circle cx="110" cy="106" r="100" fill="white"/>
</g>
<circle cx="110" cy="106" r="85" fill="#4169E1"/>
<mask id="mask0_8_290" style="mask-type:alpha" maskUnits="userSpaceOnUse" x="50" y="46" width="119" height="119">
<rect x="50" y="46" width="119" height="119" fill="#D9D9D9"/>
</mask>
<g mask="url(#mask0_8_290)">
<path d="M104.542 130.292H114.458V100.542H104.542V130.292ZM109.5 90.625C110.905 90.625 112.083 90.1498 113.033 89.1995C113.983 88.2491 114.458 87.0715 114.458 85.6667C114.458 84.2618 113.983 83.0842 113.033 82.1338C112.083 81.1835 110.905 80.7083 109.5 80.7083C108.095 80.7083 106.918 81.1835 105.967 82.1338C105.017 83.0842 104.542 84.2618 104.542 85.6667C104.542 87.0715 105.017 88.2491 105.967 89.1995C106.918 90.1498 108.095 90.625 109.5 90.625ZM109.5 155.083C102.641 155.083 96.1952 153.782 90.1626 151.179C84.1299 148.576 78.8824 145.043 74.4199 140.58C69.9574 136.118 66.4246 130.87 63.8214 124.837C61.2183 118.805 59.9167 112.359 59.9167 105.5C59.9167 98.641 61.2183 92.1951 63.8214 86.1625C66.4246 80.1299 69.9574 74.8823 74.4199 70.4198C78.8824 65.9573 84.1299 62.4245 90.1626 59.8213C96.1952 57.2182 102.641 55.9167 109.5 55.9167C116.359 55.9167 122.805 57.2182 128.838 59.8213C134.87 62.4245 140.118 65.9573 144.58 70.4198C149.043 74.8823 152.576 80.1299 155.179 86.1625C157.782 92.1951 159.083 98.641 159.083 105.5C159.083 112.359 157.782 118.805 155.179 124.837C152.576 130.87 149.043 136.118 144.58 140.58C140.118 145.043 134.87 148.576 128.838 151.179C122.805 153.782 116.359 155.083 109.5 155.083ZM109.5 145.167C120.574 145.167 129.953 141.324 137.639 133.639C145.324 125.953 149.167 116.574 149.167 105.5C149.167 94.4264 145.324 85.0469 137.639 77.3615C129.953 69.676 120.574 65.8333 109.5 65.8333C98.4265 65.8333 89.047 69.676 81.3615 77.3615C73.6761 85.0469 69.8334 94.4264 69.8334 105.5C69.8334 116.574 73.6761 125.953 81.3615 133.639C89.047 141.324 98.4265 145.167 109.5 145.167Z" fill="white"/>
</g>
<defs>
<filter id="filter0_d_8_290" x="0" y="0" width="220" height="220" filterUnits="userSpaceOnUse" color-interpolation-filters="sRGB">
<feFlood flood-opacity="0" result="BackgroundImageFix"/>
<feColorMatrix in="SourceAlpha" type="matrix" values="0 0 0 0 0 0 0 0 0 0 0 0 0 0 0 0 0 0 127 0" result="hardAlpha"/>
<feOffset dy="4"/>
<feGaussianBlur stdDeviation="5"/>
<feComposite in2="hardAlpha" operator="out"/>
<feColorMatrix type="matrix" values="0 0 0 0 0 0 0 0 0 0 0 0 0 0 0 0 0 0 0.25 0"/>
<feBlend mode="normal" in2="BackgroundImageFix" result="effect1_dropShadow_8_290"/>
<feBlend mode="normal" in="SourceGraphic" in2="effect1_dropShadow_8_290" result="shape"/>
</filter>
</defs>
</svg>
