<svg width="220" height="220" viewBox="0 0 220 220" fill="none" xmlns="http://www.w3.org/2000/svg">
<g filter="url(#filter0_d_7_276)">
<circle cx="110" cy="106" r="100" fill="white"/>
</g>
<circle cx="110" cy="106" r="85" fill="#AB74CD"/>
<mask id="mask0_7_276" style="mask-type:alpha" maskUnits="userSpaceOnUse" x="50" y="46" width="119" height="119">
<rect x="50" y="46" width="119" height="119" fill="#D9D9D9"/>
</mask>
<g mask="url(#mask0_7_276)">
<path d="M73.4284 145.167C68.4701 145.167 64.2348 143.39 60.7227 139.836C57.2105 136.283 55.3718 131.986 55.2065 126.945C55.2065 126.201 55.2479 125.457 55.3305 124.714C55.4131 123.97 55.5371 123.226 55.7024 122.482L66.1149 80.8323C67.2718 76.3698 69.627 72.7544 73.1805 69.9859C76.734 67.2175 80.7833 65.8333 85.3284 65.8333H133.672C138.217 65.8333 142.267 67.2175 145.82 69.9859C149.374 72.7544 151.729 76.3698 152.886 80.8323L163.298 122.482C163.463 123.226 163.608 123.99 163.732 124.776C163.856 125.561 163.918 126.325 163.918 127.069C163.918 132.11 162.121 136.386 158.526 139.898C154.931 143.411 150.613 145.167 145.572 145.167C142.101 145.167 138.878 144.258 135.903 142.44C132.928 140.622 130.697 138.142 129.21 135.002L125.739 127.813C125.326 126.986 124.706 126.366 123.879 125.953C123.053 125.54 122.185 125.333 121.276 125.333H97.7243C96.8152 125.333 95.9475 125.54 95.1211 125.953C94.2947 126.366 93.6749 126.986 93.2618 127.813L89.7909 135.002C88.3034 138.142 86.0722 140.622 83.0972 142.44C80.1222 144.258 76.8993 145.167 73.4284 145.167ZM73.8003 135.25C75.3704 135.25 76.796 134.837 78.0769 134.01C79.3578 133.184 80.3288 132.068 80.9899 130.664L84.4607 123.598C85.7003 121.036 87.5184 119.032 89.9149 117.586C92.3114 116.14 94.9145 115.417 97.7243 115.417H121.276C124.086 115.417 126.689 116.16 129.086 117.648C131.482 119.135 133.342 121.119 134.664 123.598L138.135 130.664C138.796 132.068 139.767 133.184 141.048 134.01C142.329 134.837 143.754 135.25 145.324 135.25C147.638 135.25 149.621 134.486 151.274 132.957C152.927 131.428 153.795 129.507 153.877 127.193C153.877 127.275 153.795 126.49 153.629 124.838L143.217 83.3115C142.638 81.0802 141.482 79.2622 139.746 77.8573C138.011 76.4524 135.986 75.75 133.672 75.75H85.3284C83.0145 75.75 80.9692 76.4524 79.1925 77.8573C77.4157 79.2622 76.2795 81.0802 75.7836 83.3115L65.3711 124.838C65.2058 125.333 65.1232 126.077 65.1232 127.069C65.1232 129.383 65.9703 131.325 67.6644 132.895C69.3585 134.465 71.4038 135.25 73.8003 135.25ZM116.938 100.542C118.343 100.542 119.52 100.067 120.471 99.1162C121.421 98.1658 121.896 96.9882 121.896 95.5833C121.896 94.1785 121.421 93.0009 120.471 92.0505C119.52 91.1002 118.343 90.625 116.938 90.625C115.533 90.625 114.355 91.1002 113.405 92.0505C112.455 93.0009 111.979 94.1785 111.979 95.5833C111.979 96.9882 112.455 98.1658 113.405 99.1162C114.355 100.067 115.533 100.542 116.938 100.542ZM126.854 90.625C128.259 90.625 129.437 90.1498 130.387 89.1995C131.338 88.2491 131.813 87.0715 131.813 85.6667C131.813 84.2618 131.338 83.0842 130.387 82.1339C129.437 81.1835 128.259 80.7083 126.854 80.7083C125.45 80.7083 124.272 81.1835 123.322 82.1339C122.371 83.0842 121.896 84.2618 121.896 85.6667C121.896 87.0715 122.371 88.2491 123.322 89.1995C124.272 90.1498 125.45 90.625 126.854 90.625ZM126.854 110.458C128.259 110.458 129.437 109.983 130.387 109.033C131.338 108.082 131.813 106.905 131.813 105.5C131.813 104.095 131.338 102.918 130.387 101.967C129.437 101.017 128.259 100.542 126.854 100.542C125.45 100.542 124.272 101.017 123.322 101.967C122.371 102.918 121.896 104.095 121.896 105.5C121.896 106.905 122.371 108.082 123.322 109.033C124.272 109.983 125.45 110.458 126.854 110.458ZM136.771 100.542C138.176 100.542 139.354 100.067 140.304 99.1162C141.254 98.1658 141.729 96.9882 141.729 95.5833C141.729 94.1785 141.254 93.0009 140.304 92.0505C139.354 91.1002 138.176 90.625 136.771 90.625C135.366 90.625 134.189 91.1002 133.238 92.0505C132.288 93.0009 131.813 94.1785 131.813 95.5833C131.813 96.9882 132.288 98.1658 133.238 99.1162C134.189 100.067 135.366 100.542 136.771 100.542ZM92.1461 107.979C93.2204 107.979 94.1088 107.628 94.8112 106.926C95.5137 106.223 95.8649 105.335 95.8649 104.26V99.3021H100.823C101.898 99.3021 102.786 98.9509 103.488 98.2484C104.191 97.546 104.542 96.6576 104.542 95.5833C104.542 94.509 104.191 93.6207 103.488 92.9182C102.786 92.2158 101.898 91.8646 100.823 91.8646H95.8649V86.9063C95.8649 85.832 95.5137 84.9436 94.8112 84.2412C94.1088 83.5387 93.2204 83.1875 92.1461 83.1875C91.0718 83.1875 90.1835 83.5387 89.481 84.2412C88.7786 84.9436 88.4274 85.832 88.4274 86.9063V91.8646H83.469C82.3947 91.8646 81.5064 92.2158 80.8039 92.9182C80.1015 93.6207 79.7503 94.509 79.7503 95.5833C79.7503 96.6576 80.1015 97.546 80.8039 98.2484C81.5064 98.9509 82.3947 99.3021 83.469 99.3021H88.4274V104.26C88.4274 105.335 88.7786 106.223 89.481 106.926C90.1835 107.628 91.0718 107.979 92.1461 107.979Z" fill="white"/>
</g>
<defs>
<filter id="filter0_d_7_276" x="0" y="0" width="220" height="220" filterUnits="userSpaceOnUse" color-interpolation-filters="sRGB">
<feFlood flood-opacity="0" result="BackgroundImageFix"/>
<feColorMatrix in="SourceAlpha" type="matrix" values="0 0 0 0 0 0 0 0 0 0 0 0 0 0 0 0 0 0 127 0" result="hardAlpha"/>
<feOffset dy="4"/>
<feGaussianBlur stdDeviation="5"/>
<feComposite in2="hardAlpha" operator="out"/>
<feColorMatrix type="matrix" values="0 0 0 0 0 0 0 0 0 0 0 0 0 0 0 0 0 0 0.25 0"/>
<feBlend mode="normal" in2="BackgroundImageFix" result="effect1_dropShadow_7_276"/>
<feBlend mode="normal" in="SourceGraphic" in2="effect1_dropShadow_7_276" result="shape"/>
</filter>
</defs>
</svg>
