<svg width="121" height="121" viewBox="0 0 121 121" fill="none" xmlns="http://www.w3.org/2000/svg">
<mask id="mask0_32_25" style="mask-type:alpha" maskUnits="userSpaceOnUse" x="0" y="0" width="121" height="121">
<rect width="121" height="121" fill="#D9D9D9"/>
</mask>
<g mask="url(#mask0_32_25)">
<path d="M99.8251 113.942L7.05847 21.1753L14.1168 14.1169L106.883 106.884L99.8251 113.942ZM70.5835 56.2149L60.5001 46.1315V15.1253H90.7501V35.2919H70.5835V56.2149ZM50.4168 105.875C44.871 105.875 40.1234 103.901 36.1741 99.9513C32.2248 96.002 30.2501 91.2545 30.2501 85.7086C30.2501 80.1628 32.2248 75.4152 36.1741 71.4659C40.1234 67.5166 44.871 65.5419 50.4168 65.5419C52.3494 65.5419 54.135 65.773 55.7736 66.2352C57.4121 66.6973 58.9876 67.3906 60.5001 68.3149V60.5003L70.5835 70.5836V85.7086C70.5835 91.2545 68.6088 96.002 64.6595 99.9513C60.7102 103.901 55.9626 105.875 50.4168 105.875Z" fill="white"/>
</g>
</svg>
