<svg width="121" height="121" viewBox="0 0 121 121" fill="none" xmlns="http://www.w3.org/2000/svg">
<mask id="mask0_32_19" style="mask-type:alpha" maskUnits="userSpaceOnUse" x="0" y="0" width="121" height="121">
<rect width="121" height="121" fill="#D9D9D9"/>
</mask>
<g mask="url(#mask0_32_19)">
<path d="M50.4167 105.875C44.8708 105.875 40.1233 103.9 36.174 99.951C32.2247 96.0017 30.25 91.2542 30.25 85.7083C30.25 80.1625 32.2247 75.4149 36.174 71.4656C40.1233 67.5163 44.8708 65.5417 50.4167 65.5417C52.3493 65.5417 54.1349 65.7727 55.7734 66.2349C57.412 66.697 58.9875 67.3903 60.5 68.3146V15.125H90.75V35.2917H70.5833V85.7083C70.5833 91.2542 68.6087 96.0017 64.6594 99.951C60.7101 103.9 55.9625 105.875 50.4167 105.875Z" fill="white"/>
</g>
</svg>
