<svg width="150" height="150" viewBox="0 0 150 150" fill="none" xmlns="http://www.w3.org/2000/svg">
<circle cx="75" cy="75" r="75" fill="#7291FF"/>
<mask id="mask0_25_13" style="mask-type:alpha" maskUnits="userSpaceOnUse" x="19" y="19" width="112" height="112">
<rect x="19" y="19" width="112" height="112" rx="4" fill="#D9D9D9"/>
</mask>
<g mask="url(#mask0_25_13)">
<path d="M70.3333 112.24C70.3333 114.645 68.2187 116.525 65.8799 115.967C58.4345 114.191 52.1217 110.355 46.9416 104.458C40.7583 97.4194 37.6666 89.1555 37.6666 79.6666C37.6666 74.5333 38.6777 69.6139 40.7 64.9083C42.2075 61.4004 44.1905 58.2275 46.6489 55.3896C48.0625 53.7578 50.5454 53.812 52.072 55.3386L52.9934 56.26C54.6171 57.8838 54.5137 60.5211 53.0536 62.2934C51.5015 64.1772 50.242 66.235 49.275 68.4666C47.7583 71.9666 47 75.7 47 79.6666C47 86.5111 49.1777 92.5583 53.5333 97.8083C57.1691 102.191 61.672 105.151 67.0421 106.688C68.9166 107.224 70.3333 108.859 70.3333 110.809V112.24ZM84.1502 115.925C81.8031 116.504 79.6666 114.62 79.6666 112.203V110.765C79.6666 108.835 81.0556 107.209 82.9057 106.659C88.2349 105.075 92.7358 102.105 96.4083 97.75C100.803 92.5389 103 86.5111 103 79.6666C103 71.8889 100.278 65.2777 94.8333 59.8333C89.3888 54.3888 82.7777 51.6666 75 51.6666V51.6666C74.8708 51.6666 74.8061 51.8228 74.8974 51.9141L78.2798 55.2964C79.1101 56.1268 79.1101 57.4731 78.2798 58.3035L76.0784 60.5049C74.5163 62.067 71.9836 62.067 70.4215 60.5049L59.7451 49.8284C58.183 48.2663 58.183 45.7336 59.7451 44.1715L70.4215 33.4951C71.9836 31.933 74.5163 31.933 76.0784 33.4951L78.2798 35.6964C79.1101 36.5268 79.1101 37.8731 78.2798 38.7035L74.8974 42.0858C74.8061 42.1771 74.8708 42.3333 75 42.3333V42.3333C85.4222 42.3333 94.25 45.95 101.483 53.1833C108.717 60.4166 112.333 69.2444 112.333 79.6666C112.333 89.0777 109.242 97.3027 103.058 104.342C97.8852 110.23 91.5825 114.092 84.1502 115.925Z" fill="white"/>
</g>
</svg>
