<svg width="150" height="150" viewBox="0 0 150 150" fill="none" xmlns="http://www.w3.org/2000/svg">
<circle cx="75" cy="75" r="75" fill="#FF6767"/>
<mask id="mask0_19_136" style="mask-type:alpha" maskUnits="userSpaceOnUse" x="18" y="18" width="114" height="114">
<rect x="18" y="18" width="114" height="114" rx="5" fill="#D9D9D9"/>
</mask>
<g mask="url(#mask0_19_136)">
<path d="M51.725 104.925C49.8887 106.761 46.9113 106.761 45.075 104.925C43.2387 103.089 43.2387 100.111 45.075 98.275L64.8145 78.5355C66.7671 76.5829 66.7671 73.4171 64.8145 71.4645L45.075 51.725C43.2387 49.8887 43.2387 46.9113 45.075 45.075C46.9113 43.2387 49.8887 43.2387 51.725 45.075L71.4645 64.8145C73.4171 66.7671 76.5829 66.7671 78.5355 64.8145L98.275 45.075C100.111 43.2387 103.089 43.2387 104.925 45.075C106.761 46.9113 106.761 49.8887 104.925 51.725L85.1855 71.4645C83.2329 73.4171 83.2329 76.5829 85.1855 78.5355L104.925 98.275C106.761 100.111 106.761 103.089 104.925 104.925C103.089 106.761 100.111 106.761 98.275 104.925L78.5355 85.1855C76.5829 83.2329 73.4171 83.2329 71.4645 85.1855L51.725 104.925Z" fill="white"/>
</g>
</svg>
