<svg width="1080" height="5760" viewBox="0 0 1080 5760" fill="none" xmlns="http://www.w3.org/2000/svg">
<g clip-path="url(#clip0_22_197)">
<rect width="1080" height="1920" transform="translate(0 3840)" fill="#A6DA62"/>
<g filter="url(#filter0_d_22_197)">
<path d="M538 5739.5V5739.5C538 5651 466.257 5579.26 377.757 5579.26H359C260.141 5579.26 180 5499.12 180 5400.26V5385.95C180 5279.19 266.548 5192.64 373.31 5192.64H704.542C812.49 5192.64 900 5105.13 900 4997.18V4997.18C900 4889.23 812.491 4801.72 704.542 4801.72H371.162C265.586 4801.72 180 4716.14 180 4610.56V4610.56C180 4504.98 265.586 4419.4 371.162 4419.4H708.301C814.173 4419.4 900 4333.57 900 4227.7V4217C900 4117.04 818.964 4036 719 4036H715C617.246 4036 538 3956.75 538 3859V3859" stroke="white" stroke-opacity="0.63" stroke-width="37" stroke-linecap="square" shape-rendering="crispEdges"/>
</g>
<path d="M637 4225H711" stroke="#9BD552" stroke-width="256" stroke-linecap="round"/>
<path d="M674 4311H435" stroke="#9BD552" stroke-width="83" stroke-linecap="round"/>
<path d="M684 4139H520" stroke="#9BD552" stroke-width="83" stroke-linecap="round"/>
<path d="M441 4225H609" stroke="#A6DA62" stroke-width="89" stroke-linecap="round"/>
<path d="M573 5385H499" stroke="#9BD552" stroke-width="256" stroke-linecap="round"/>
<path d="M536 5471H775" stroke="#9BD552" stroke-width="83" stroke-linecap="round"/>
<path d="M526 5299H690" stroke="#9BD552" stroke-width="83" stroke-linecap="round"/>
<path d="M769 5385H601" stroke="#A6DA62" stroke-width="89" stroke-linecap="round"/>
<path d="M244 4041H328" stroke="#9BD552" stroke-width="55" stroke-linecap="round"/>
<path d="M373 4605H609" stroke="#9BD552" stroke-width="235" stroke-linecap="round"/>
<path d="M862 5271H992" stroke="#9BD552" stroke-width="66" stroke-linecap="round"/>
<path d="M228 4965H532" stroke="#9BD552" stroke-width="151" stroke-linecap="round"/>
<path d="M692 5089H758" stroke="#9BD552" stroke-width="68" stroke-linecap="round"/>
<path d="M324 5699H390" stroke="#9BD552" stroke-width="68" stroke-linecap="round"/>
<path d="M848.215 4401.94C860.736 4382.55 873.133 4381.22 883.5 4381V4608.99C883.5 4617.14 853.542 4609.41 835.695 4599.53C821.985 4588.71 816.559 4580.8 813.206 4561.53C812.232 4542.16 814.614 4522.25 822.512 4475.45C829.744 4444.95 835.695 4421.33 848.215 4401.94Z" fill="#F2CB78" stroke="#F2CB78" stroke-width="5" stroke-linecap="round"/>
<path d="M918.785 4401.94C906.264 4382.55 893.867 4381.22 883.5 4381V4608.99C883.5 4617.14 913.458 4609.41 931.305 4599.53C945.015 4588.71 950.441 4580.8 953.794 4561.53C954.768 4542.16 952.386 4522.25 944.488 4475.45C937.256 4444.95 931.305 4421.33 918.785 4401.94Z" fill="#F2CB78" stroke="#F2CB78" stroke-width="5" stroke-linecap="round"/>
<path d="M888.153 4667.15V4397.29" stroke="#BD8B43" stroke-width="5" stroke-linecap="round"/>
<path d="M888.153 4461.65L875.617 4462.86C860.72 4464.29 847.828 4452.58 847.828 4437.61V4437.61M888.153 4510.51L901.825 4513.14C915.651 4515.79 928.478 4505.2 928.478 4491.12V4491.12M888.153 4554.71L881.632 4556.07C865.912 4559.36 849.992 4551.42 843.175 4536.87V4536.87" stroke="#BD8B43" stroke-width="5" stroke-linecap="round"/>
<path d="M980.919 4516.28C975.407 4507.16 969.974 4504 957 4504V4619.39C977.312 4622.15 989.978 4615 994.327 4609.73C998.676 4604.47 1000.34 4588.24 997.806 4574.64C997.806 4574.64 989.086 4536.96 980.919 4516.28Z" fill="#E0A3CF" stroke="#E0A3CF" stroke-width="5" stroke-linecap="round"/>
<path d="M931.081 4516.28C936.593 4507.16 942.026 4504 955 4504V4619.39C934.688 4622.15 922.022 4615 917.673 4609.73C913.324 4604.47 911.657 4588.24 914.194 4574.64C914.194 4574.64 922.914 4536.96 931.081 4516.28Z" fill="#E0A3CF" stroke="#E0A3CF" stroke-width="5" stroke-linecap="round"/>
<path d="M956 4667V4518" stroke="#BD8B43" stroke-width="5" stroke-linecap="round"/>
<path d="M956 4560C964.823 4566.22 972.5 4554.5 972.5 4554.5M956 4591C947.799 4595.45 941 4595 935.5 4588.5" stroke="#BD8B43" stroke-width="5" stroke-linecap="round"/>
<path d="M112.081 5054.28C117.593 5045.16 123.026 5042 136 5042V5157.39C115.688 5160.15 103.022 5153 98.6727 5147.73C94.3239 5142.47 92.6572 5126.24 95.1937 5112.64C95.1937 5112.64 103.914 5074.96 112.081 5054.28Z" fill="#F2CB78" stroke="#F2CB78" stroke-width="5" stroke-linecap="round"/>
<path d="M161.919 5054.28C156.407 5045.16 150.974 5042 138 5042V5157.39C158.312 5160.15 170.978 5153 175.327 5147.73C179.676 5142.47 181.343 5126.24 178.806 5112.64C178.806 5112.64 170.086 5074.96 161.919 5054.28Z" fill="#F2CB78" stroke="#F2CB78" stroke-width="5" stroke-linecap="round"/>
<path d="M137 5205V5056" stroke="#BD8B43" stroke-width="5" stroke-linecap="round"/>
<path d="M137 5098C128.177 5104.22 120.5 5092.5 120.5 5092.5M137 5129C145.201 5133.45 152 5133 157.5 5126.5" stroke="#BD8B43" stroke-width="5" stroke-linecap="round"/>
<path d="M337.215 3889.94C349.736 3870.55 362.133 3869.22 372.5 3869V4096.99C372.5 4105.14 342.542 4097.41 324.695 4087.53C310.985 4076.71 305.559 4068.8 302.206 4049.53C301.232 4030.16 303.614 4010.25 311.512 3963.45C318.744 3932.95 324.695 3909.33 337.215 3889.94Z" fill="#F49B7E" stroke="#F49B7E" stroke-width="5" stroke-linecap="round"/>
<path d="M407.785 3889.94C395.264 3870.55 382.867 3869.22 372.5 3869V4096.99C372.5 4105.14 402.458 4097.41 420.305 4087.53C434.015 4076.71 439.441 4068.8 442.794 4049.53C443.768 4030.16 441.386 4010.25 433.488 3963.45C426.256 3932.95 420.305 3909.33 407.785 3889.94Z" fill="#F49B7E" stroke="#F49B7E" stroke-width="5" stroke-linecap="round"/>
<path d="M372.5 4155.15V3885.29" stroke="#BD8B43" stroke-width="5" stroke-linecap="round"/>
<path d="M372.5 3949.65L385.036 3950.86C399.933 3952.29 412.825 3940.58 412.825 3925.61V3925.61M372.5 3998.51L358.828 4001.14C345.001 4003.79 332.175 3993.2 332.175 3979.12V3979.12M372.5 4042.71L379.021 4044.07C394.741 4047.36 410.661 4039.42 417.478 4024.87V4024.87" stroke="#BD8B43" stroke-width="5" stroke-linecap="round"/>
<path d="M47.1396 4114.35C55.7221 4101.06 64.2204 4100.15 71.3267 4100V4256.29C71.3267 4261.87 50.7912 4256.57 38.557 4249.8C29.1589 4242.38 25.4395 4236.96 23.1411 4223.75C22.4735 4210.47 24.1065 4196.82 29.5201 4164.74C34.4779 4143.84 38.557 4127.64 47.1396 4114.35Z" fill="#E0A3CF" stroke="#E0A3CF" stroke-width="5" stroke-linecap="round"/>
<path d="M95.5138 4114.35C86.9312 4101.06 78.433 4100.15 71.3267 4100V4256.29C71.3267 4261.87 91.8622 4256.57 104.096 4249.8C113.494 4242.38 117.214 4236.96 119.512 4223.75C120.18 4210.47 118.547 4196.82 113.133 4164.74C108.175 4143.84 104.096 4127.64 95.5138 4114.35Z" fill="#E0A3CF" stroke="#E0A3CF" stroke-width="5" stroke-linecap="round"/>
<path d="M71.3267 4296.15V4111.16" stroke="#BD8B43" stroke-width="5" stroke-linecap="round"/>
<path d="M71.3267 4155.28L79.9199 4156.11C90.1319 4157.09 98.9691 4149.06 98.9691 4138.81V4138.81M71.3267 4188.77L61.955 4190.58C52.4769 4192.4 43.6843 4185.14 43.6843 4175.48V4175.48M71.3267 4219.07L75.7965 4220.01C86.5726 4222.27 97.4857 4216.82 102.159 4206.85V4206.85" stroke="#BD8B43" stroke-width="5" stroke-linecap="round"/>
<path d="M1021.92 5397.28C1016.41 5388.16 1010.97 5385 998 5385V5500.39C1018.31 5503.15 1030.98 5496 1035.33 5490.73C1039.68 5485.47 1041.34 5469.24 1038.81 5455.64C1038.81 5455.64 1030.09 5417.96 1021.92 5397.28Z" fill="#F49B7E" stroke="#F49B7E" stroke-width="5" stroke-linecap="round"/>
<path d="M972.081 5397.28C977.593 5388.16 983.026 5385 996 5385V5500.39C975.688 5503.15 963.022 5496 958.673 5490.73C954.324 5485.47 952.657 5469.24 955.194 5455.64C955.194 5455.64 963.914 5417.96 972.081 5397.28Z" fill="#F49B7E" stroke="#F49B7E" stroke-width="5" stroke-linecap="round"/>
<path d="M997 5548V5399" stroke="#BD8B43" stroke-width="5" stroke-linecap="round"/>
<path d="M997 5441C1005.82 5447.22 1013.5 5435.5 1013.5 5435.5M997 5472C988.799 5476.45 982 5476 976.5 5469.5" stroke="#BD8B43" stroke-width="5" stroke-linecap="round"/>
<path d="M597.094 5449.6C609.019 5467.86 618.898 5474.85 641.756 5481.98H704.843C719.349 5476.08 741.672 5472.25 750.622 5457.42C754.847 5450.98 755.396 5446.76 750.622 5437.32C737.311 5434.18 730.528 5435.83 719.358 5443.46C724.775 5437.72 727.358 5433.54 728.849 5419.45C722.175 5411.11 717.263 5408.44 704.843 5409.96C690.47 5418.06 686.903 5424.74 681.953 5437.32C684.947 5422.26 686.081 5418.02 679.162 5398.24C666.044 5387.2 658.946 5386.76 647.339 5399.91C641.481 5417.58 638.952 5421.42 647.339 5440.67L621.1 5425.04C613.284 5421.13 584.642 5422.57 597.094 5449.6Z" fill="#53AF7E" stroke="#53AF7E" stroke-width="2" stroke-linecap="round"/>
<path d="M665.763 5452.95C659.933 5432.41 659.252 5422.3 661.296 5406.05" stroke="#429267" stroke-linecap="round"/>
<path d="M695.352 5444.02C702.647 5438.28 706.205 5433.56 711.542 5422.24M704.284 5464.12C718.951 5462.67 726.434 5459.56 738.898 5451.27M637.29 5464.12C619.985 5458.55 612.742 5453.21 603.793 5440.11" stroke="#429267" stroke-linecap="round"/>
<path d="M610.038 5481.25C623.887 5482.48 631.218 5482.81 641.673 5481.25C643.373 5482.11 650.994 5468.97 649.355 5464.98C647.716 5460.98 647.613 5458.73 641.673 5460.01L635.638 5465.42C637.279 5462.29 637.336 5444.25 634.216 5437.86C630.794 5430.86 624.726 5429.28 619.755 5437.86C614.783 5446.45 616.139 5464.98 616.139 5464.98L610.038 5455.71C605.392 5453.66 602.13 5453.91 601 5460.01C601 5468.14 604.615 5472.19 610.038 5481.25Z" fill="#7DC646" stroke="#7DC646"/>
<path d="M625.238 5473.49C624.335 5459.94 624.566 5452.72 626.004 5440.35" stroke="#6DB432" stroke-linecap="round"/>
<path d="M620.884 5449.39C621.102 5452.39 622.274 5453.5 624.726 5455.26C628.83 5453.96 630.616 5452.68 632.86 5449.39M619.755 5460.01C621.88 5461.57 622.961 5462.14 624.726 5462.72C628.135 5462.33 629.764 5461.44 632.182 5458.65M622.918 5441.48C623.805 5443.53 624.353 5444.24 625.404 5444.87C627.698 5444.81 628.643 5444.2 629.697 5442.16M613.428 5471.3L611.639 5468.59M606.423 5460.68L608.957 5464.53M638.961 5473.34L644.836 5464.53M608.957 5464.53C610.243 5463.25 610.718 5462.56 610.49 5461.36M608.957 5464.53C606.964 5464.81 606.238 5464.41 605.293 5463.17M608.957 5464.53L611.639 5468.59M611.639 5468.59C609.716 5469.19 608.589 5469.16 606.423 5467.91M611.639 5468.59C613.228 5468 613.428 5466.78 613.88 5466.11" stroke="#6DB432" stroke-linecap="round"/>
<path d="M645.966 5468.37C644.282 5469.06 643.551 5468.91 642.35 5468.37C641.558 5467.65 641.358 5467 641.673 5465.2M643.48 5472.21C642.139 5472.85 641.395 5472.81 640.091 5471.76C638.766 5470.78 638.56 5469.99 638.735 5468.37" stroke="#6DB432" stroke-linecap="round"/>
<path d="M176.561 4379.66C155.003 4381.58 143.591 4382.09 127.317 4379.66C124.67 4381 112.806 4360.55 115.357 4354.34C117.909 4348.12 118.07 4344.6 127.317 4346.6L136.711 4355.02C134.157 4350.15 134.067 4322.07 138.924 4312.13C144.251 4301.22 153.698 4298.76 161.436 4312.13C169.175 4325.49 167.064 4354.34 167.064 4354.34L176.561 4339.91C183.795 4336.72 188.873 4337.1 190.631 4346.6C190.631 4359.26 185.004 4365.56 176.561 4379.66Z" fill="#7DC646" stroke="#7DC646"/>
<path d="M152.9 4367.59C154.306 4346.5 153.946 4335.25 151.707 4315.99" stroke="#6DB432" stroke-linecap="round"/>
<path d="M159.678 4330.06C159.339 4334.75 157.515 4336.46 153.698 4339.21C147.309 4337.19 144.529 4335.19 141.035 4330.06M161.436 4346.6C158.128 4349.02 156.444 4349.92 153.698 4350.82C148.391 4350.22 145.854 4348.83 142.09 4344.49M156.512 4317.75C155.131 4320.94 154.278 4322.05 152.643 4323.03C149.07 4322.94 147.6 4321.99 145.959 4318.81M171.285 4364.18L174.069 4359.96M182.189 4347.65L178.245 4353.63M131.538 4367.35L122.392 4353.63M178.245 4353.63C176.244 4351.65 175.504 4350.57 175.858 4348.71M178.245 4353.63C181.347 4354.08 182.478 4353.45 183.948 4351.52M178.245 4353.63L174.069 4359.96M174.069 4359.96C177.064 4360.9 178.818 4360.85 182.189 4358.91M174.069 4359.96C171.596 4359.04 171.285 4357.15 170.582 4356.09" stroke="#6DB432" stroke-linecap="round"/>
<path d="M120.633 4359.61C123.255 4360.69 124.393 4360.45 126.261 4359.61C127.496 4358.49 127.807 4357.49 127.317 4354.69M124.503 4365.59C126.591 4366.58 127.749 4366.53 129.779 4364.89C131.841 4363.36 132.163 4362.15 131.889 4359.61" stroke="#6DB432" stroke-linecap="round"/>
<path d="M416.055 4144.57C411.339 4151.79 407.432 4154.56 398.392 4157.38H373.441C367.704 4155.04 358.876 4153.53 355.336 4147.66C353.665 4145.12 353.448 4143.45 355.336 4139.71C360.6 4138.47 363.283 4139.13 367.701 4142.14C365.558 4139.87 364.537 4138.22 363.947 4132.65C366.586 4129.35 368.529 4128.29 373.441 4128.89C379.126 4132.1 380.536 4134.74 382.494 4139.71C381.31 4133.76 380.862 4132.08 383.598 4124.26C388.786 4119.89 391.593 4119.72 396.184 4124.92C398.501 4131.91 399.501 4133.43 396.184 4141.04L406.561 4134.86C409.652 4133.31 420.98 4133.88 416.055 4144.57Z" fill="#53AF7E" stroke="#53AF7E" stroke-width="2" stroke-linecap="round"/>
<path d="M388.897 4145.9C391.203 4137.77 391.472 4133.77 390.664 4127.35" stroke="#429267" stroke-linecap="round"/>
<path d="M377.195 4142.36C374.31 4140.1 372.902 4138.23 370.792 4133.75M373.662 4150.31C367.861 4149.74 364.902 4148.51 359.973 4145.23M400.158 4150.31C407.002 4148.11 409.866 4146 413.406 4140.82" stroke="#429267" stroke-linecap="round"/>
<path d="M877.214 4644.7C879.262 4661.2 888.477 4670 888.477 4670H922.266L941.72 4644.7C950.599 4631.89 952.221 4624.19 941.72 4608.41C930.35 4603.28 927.452 4616.16 922.304 4639.03L922.266 4639.2C926.401 4604.78 925.341 4592.64 913.05 4593.01C899.194 4608.09 896.915 4618.51 898.716 4639.2C898.716 4639.2 894.113 4628.7 888.477 4628.2C888.477 4628.2 875.166 4628.2 877.214 4644.7Z" fill="#53AF7E" stroke="#53AF7E" stroke-width="2" stroke-linecap="round"/>
<path d="M243.408 4919.39C239.729 4925.02 236.681 4927.18 229.629 4929.38H210.166C205.69 4927.56 198.803 4926.38 196.042 4921.8C194.739 4919.81 194.569 4918.51 196.042 4915.6C200.149 4914.63 202.241 4915.14 205.688 4917.49C204.017 4915.72 203.22 4914.43 202.76 4910.09C204.818 4907.51 206.334 4906.69 210.166 4907.16C214.6 4909.66 215.701 4911.72 217.228 4915.6C216.304 4910.95 215.954 4909.64 218.089 4903.54C222.136 4900.14 224.326 4900 227.907 4904.06C229.714 4909.51 230.494 4910.69 227.907 4916.63L236.002 4911.81C238.413 4910.6 247.25 4911.05 243.408 4919.39Z" fill="#53AF7E" stroke="#53AF7E" stroke-width="2" stroke-linecap="round"/>
<path d="M222.223 4920.42C224.021 4914.08 224.231 4910.97 223.601 4905.95" stroke="#429267" stroke-linecap="round"/>
<path d="M213.094 4917.67C210.843 4915.9 209.746 4914.44 208.099 4910.95M210.338 4923.87C205.813 4923.42 203.505 4922.46 199.659 4919.9M231.007 4923.87C236.346 4922.15 238.581 4920.5 241.342 4916.46" stroke="#429267" stroke-linecap="round"/>
<path d="M298.354 4938.46L276.232 4944.61C271.972 4945.79 268.524 4948.92 266.93 4953.04C264.619 4959.02 266.665 4965.8 271.895 4969.51L286.861 4980.1C293.202 4984.59 300.778 4987 308.546 4987H332.451C336.102 4987 339.726 4986.37 343.164 4985.15L354.497 4981.1C364.379 4977.58 369.685 4966.85 366.489 4956.86C364.429 4950.42 359.169 4945.51 352.6 4943.89L328.586 4938C318.636 4935.56 308.225 4935.71 298.354 4938.46Z" fill="#9A9A9A" stroke="#9A9A9A" stroke-opacity="0.63" stroke-width="3" stroke-linecap="square"/>
<path d="M298.354 4933.19L276.232 4939.34C271.972 4940.52 268.524 4943.65 266.93 4947.77C264.619 4953.75 266.665 4960.53 271.895 4964.23L286.861 4974.83C293.202 4979.32 300.778 4981.73 308.546 4981.73H332.451C336.102 4981.73 339.726 4981.1 343.164 4979.87L354.497 4975.83C364.379 4972.31 369.685 4961.58 366.489 4951.59C364.429 4945.14 359.169 4940.23 352.6 4938.62L328.586 4932.73C318.636 4930.28 308.225 4930.44 298.354 4933.19Z" fill="#C3C3C3" stroke="#C3C3C3" stroke-opacity="0.63" stroke-width="3" stroke-linecap="square"/>
<path d="M86.335 5598.33C92.0206 5597.32 96.1285 5596.18 99.3219 5594.72C107.123 5591.16 104.316 5578.66 97.0872 5574.04C93.1428 5571.52 91.1829 5572.29 86.5344 5572.83L70.1596 5574.74C67.0903 5575.09 64.1266 5576.07 61.3983 5577.52C53.3384 5581.8 44.4742 5586.27 47.6681 5590.25C51.2706 5594.74 66.0655 5598.08 82.2187 5598.63C83.5945 5598.67 84.9797 5598.57 86.335 5598.33Z" fill="#9A9A9A" stroke="#9A9A9A" stroke-opacity="0.63" stroke-width="3"/>
<path d="M86.335 5594.33C92.0206 5593.32 96.1285 5592.18 99.3219 5590.72C107.123 5587.16 104.316 5574.66 97.0872 5570.04C93.1428 5567.52 91.1829 5568.29 86.5344 5568.83L70.1596 5570.74C67.0903 5571.09 64.1266 5572.07 61.3983 5573.52C53.3384 5577.8 44.4742 5582.27 47.6681 5586.25C51.2706 5590.74 66.0655 5594.08 82.2187 5594.63C83.5945 5594.67 84.9797 5594.57 86.335 5594.33Z" fill="#C3C3C3" stroke="#C3C3C3" stroke-opacity="0.63" stroke-width="3"/>
<path d="M760.669 4210.36L775.544 4214.5C778.408 4215.29 780.727 4217.39 781.799 4220.17C783.353 4224.19 781.977 4228.75 778.46 4231.24L768.397 4238.36C764.134 4241.38 759.039 4243 753.816 4243H737.742C735.287 4243 732.85 4242.58 730.538 4241.75L722.918 4239.04C716.273 4236.67 712.705 4229.45 714.854 4222.73C716.24 4218.4 719.776 4215.1 724.193 4214.02L740.341 4210.05C747.031 4208.41 754.032 4208.51 760.669 4210.36Z" fill="#9A9A9A" stroke="#9A9A9A" stroke-opacity="0.63" stroke-width="3" stroke-linecap="square"/>
<path d="M760.669 4206.81L775.544 4210.95C778.408 4211.75 780.727 4213.85 781.799 4216.62C783.353 4220.64 781.977 4225.2 778.46 4227.69L768.397 4234.82C764.134 4237.83 759.039 4239.45 753.816 4239.45H737.742C735.287 4239.45 732.85 4239.03 730.538 4238.21L722.918 4235.49C716.273 4233.12 712.705 4225.91 714.854 4219.19C716.24 4214.86 719.776 4211.55 724.193 4210.47L740.341 4206.51C747.031 4204.86 754.032 4204.97 760.669 4206.81Z" fill="#C3C3C3" stroke="#C3C3C3" stroke-opacity="0.63" stroke-width="3" stroke-linecap="square"/>
<path d="M81.335 3915.33C87.0206 3914.32 91.1285 3913.18 94.3219 3911.72C102.123 3908.16 99.316 3895.66 92.0872 3891.04C88.1428 3888.52 86.1829 3889.29 81.5344 3889.83L65.1596 3891.74C62.0903 3892.09 59.1266 3893.07 56.3983 3894.52C48.3384 3898.8 39.4742 3903.27 42.6681 3907.25C46.2706 3911.74 61.0655 3915.08 77.2187 3915.63C78.5945 3915.67 79.9797 3915.57 81.335 3915.33Z" fill="#9A9A9A" stroke="#9A9A9A" stroke-opacity="0.63" stroke-width="3"/>
<path d="M81.335 3911.33C87.0206 3910.32 91.1285 3909.18 94.3219 3907.72C102.123 3904.16 99.316 3891.66 92.0872 3887.04C88.1428 3884.52 86.1829 3885.29 81.5344 3885.83L65.1596 3887.74C62.0903 3888.09 59.1266 3889.07 56.3983 3890.52C48.3384 3894.8 39.4742 3899.27 42.6681 3903.25C46.2706 3907.74 61.0655 3911.08 77.2187 3911.63C78.5945 3911.67 79.9797 3911.57 81.335 3911.33Z" fill="#C3C3C3" stroke="#C3C3C3" stroke-opacity="0.63" stroke-width="3"/>
<path d="M949.813 3998.16C974.042 4000.31 986.867 4000.89 1005.16 3998.16C1008.13 3999.66 1021.47 3976.68 1018.6 3969.69C1015.73 3962.71 1015.55 3958.76 1005.16 3961L994.599 3970.46C997.47 3964.99 997.571 3933.43 992.112 3922.26C986.126 3910 975.509 3907.23 966.812 3922.26C958.115 3937.28 960.486 3969.69 960.486 3969.69L949.813 3953.49C941.683 3949.9 935.977 3950.32 934 3961C934 3975.23 940.324 3982.31 949.813 3998.16Z" fill="#7DC646" stroke="#7DC646"/>
<path d="M976.405 3984.59C974.826 3960.89 975.229 3948.25 977.746 3926.6" stroke="#6DB432" stroke-linecap="round"/>
<path d="M968.788 3942.42C969.169 3947.68 971.219 3949.61 975.509 3952.7C982.689 3950.42 985.814 3948.18 989.74 3942.42M966.812 3961C970.529 3963.72 972.422 3964.73 975.509 3965.74C981.473 3965.07 984.324 3963.5 988.554 3958.63M972.346 3928.58C973.898 3932.16 974.857 3933.41 976.695 3934.51C980.709 3934.41 982.362 3933.34 984.206 3929.77M955.743 3980.76L952.614 3976.02M943.488 3962.18L947.92 3968.9M1000.41 3984.32L1010.69 3968.9M947.92 3968.9C950.17 3966.68 951.001 3965.46 950.603 3963.37M947.92 3968.9C944.435 3969.41 943.164 3968.69 941.511 3966.53M947.92 3968.9L952.614 3976.02M952.614 3976.02C949.249 3977.07 947.277 3977.01 943.488 3974.83M952.614 3976.02C955.394 3974.98 955.743 3972.86 956.533 3971.67" stroke="#6DB432" stroke-linecap="round"/>
<path d="M1012.67 3975.62C1009.72 3976.84 1008.44 3976.57 1006.34 3975.62C1004.96 3974.36 1004.61 3973.24 1005.16 3970.09M1008.32 3982.34C1005.97 3983.46 1004.67 3983.4 1002.39 3981.55C1000.07 3979.84 999.711 3978.47 1000.02 3975.62" stroke="#6DB432" stroke-linecap="round"/>
</g>
<g clip-path="url(#clip1_22_197)">
<rect width="1080" height="1920" transform="translate(0 1920)" fill="#A6DA62"/>
<g filter="url(#filter1_d_22_197)">
<path d="M538 3819.5V3819.5C538 3731 466.257 3659.26 377.757 3659.26H359C260.141 3659.26 180 3579.12 180 3480.26V3465.95C180 3359.19 266.548 3272.64 373.31 3272.64H704.542C812.49 3272.64 900 3185.13 900 3077.18V3077.18C900 2969.23 812.491 2881.72 704.542 2881.72H371.162C265.586 2881.72 180 2796.14 180 2690.56V2690.56C180 2584.98 265.586 2499.4 371.162 2499.4H708.301C814.173 2499.4 900 2413.57 900 2307.7V2297C900 2197.04 818.964 2116 719 2116H715C617.246 2116 538 2036.75 538 1939V1939" stroke="white" stroke-opacity="0.63" stroke-width="37" stroke-linecap="square" shape-rendering="crispEdges"/>
</g>
<path d="M637 2305H711" stroke="#9BD552" stroke-width="256" stroke-linecap="round"/>
<path d="M674 2391H435" stroke="#9BD552" stroke-width="83" stroke-linecap="round"/>
<path d="M684 2219H520" stroke="#9BD552" stroke-width="83" stroke-linecap="round"/>
<path d="M441 2305H609" stroke="#A6DA62" stroke-width="89" stroke-linecap="round"/>
<path d="M573 3465H499" stroke="#9BD552" stroke-width="256" stroke-linecap="round"/>
<path d="M536 3551H775" stroke="#9BD552" stroke-width="83" stroke-linecap="round"/>
<path d="M526 3379H690" stroke="#9BD552" stroke-width="83" stroke-linecap="round"/>
<path d="M769 3465H601" stroke="#A6DA62" stroke-width="89" stroke-linecap="round"/>
<path d="M244 2121H328" stroke="#9BD552" stroke-width="55" stroke-linecap="round"/>
<path d="M373 2685H609" stroke="#9BD552" stroke-width="235" stroke-linecap="round"/>
<path d="M862 3351H992" stroke="#9BD552" stroke-width="66" stroke-linecap="round"/>
<path d="M228 3045H532" stroke="#9BD552" stroke-width="151" stroke-linecap="round"/>
<path d="M692 3169H758" stroke="#9BD552" stroke-width="68" stroke-linecap="round"/>
<path d="M324 3779H390" stroke="#9BD552" stroke-width="68" stroke-linecap="round"/>
<path d="M848.215 2481.94C860.736 2462.55 873.133 2461.22 883.5 2461V2688.99C883.5 2697.14 853.542 2689.41 835.695 2679.53C821.985 2668.71 816.559 2660.8 813.206 2641.53C812.232 2622.16 814.614 2602.25 822.512 2555.45C829.744 2524.95 835.695 2501.33 848.215 2481.94Z" fill="#F2CB78" stroke="#F2CB78" stroke-width="5" stroke-linecap="round"/>
<path d="M918.785 2481.94C906.264 2462.55 893.867 2461.22 883.5 2461V2688.99C883.5 2697.14 913.458 2689.41 931.305 2679.53C945.015 2668.71 950.441 2660.8 953.794 2641.53C954.768 2622.16 952.386 2602.25 944.488 2555.45C937.256 2524.95 931.305 2501.33 918.785 2481.94Z" fill="#F2CB78" stroke="#F2CB78" stroke-width="5" stroke-linecap="round"/>
<path d="M888.153 2747.15V2477.29" stroke="#BD8B43" stroke-width="5" stroke-linecap="round"/>
<path d="M888.153 2541.65L875.617 2542.86C860.72 2544.29 847.828 2532.58 847.828 2517.61V2517.61M888.153 2590.51L901.825 2593.14C915.651 2595.79 928.478 2585.2 928.478 2571.12V2571.12M888.153 2634.71L881.632 2636.07C865.912 2639.36 849.992 2631.42 843.175 2616.87V2616.87" stroke="#BD8B43" stroke-width="5" stroke-linecap="round"/>
<path d="M980.919 2596.28C975.407 2587.16 969.974 2584 957 2584V2699.39C977.312 2702.15 989.978 2695 994.327 2689.73C998.676 2684.47 1000.34 2668.24 997.806 2654.64C997.806 2654.64 989.086 2616.96 980.919 2596.28Z" fill="#E0A3CF" stroke="#E0A3CF" stroke-width="5" stroke-linecap="round"/>
<path d="M931.081 2596.28C936.593 2587.16 942.026 2584 955 2584V2699.39C934.688 2702.15 922.022 2695 917.673 2689.73C913.324 2684.47 911.657 2668.24 914.194 2654.64C914.194 2654.64 922.914 2616.96 931.081 2596.28Z" fill="#E0A3CF" stroke="#E0A3CF" stroke-width="5" stroke-linecap="round"/>
<path d="M956 2747V2598" stroke="#BD8B43" stroke-width="5" stroke-linecap="round"/>
<path d="M956 2640C964.823 2646.22 972.5 2634.5 972.5 2634.5M956 2671C947.799 2675.45 941 2675 935.5 2668.5" stroke="#BD8B43" stroke-width="5" stroke-linecap="round"/>
<path d="M112.081 3134.28C117.593 3125.16 123.026 3122 136 3122V3237.39C115.688 3240.15 103.022 3233 98.6727 3227.73C94.3239 3222.47 92.6572 3206.24 95.1937 3192.64C95.1937 3192.64 103.914 3154.96 112.081 3134.28Z" fill="#F2CB78" stroke="#F2CB78" stroke-width="5" stroke-linecap="round"/>
<path d="M161.919 3134.28C156.407 3125.16 150.974 3122 138 3122V3237.39C158.312 3240.15 170.978 3233 175.327 3227.73C179.676 3222.47 181.343 3206.24 178.806 3192.64C178.806 3192.64 170.086 3154.96 161.919 3134.28Z" fill="#F2CB78" stroke="#F2CB78" stroke-width="5" stroke-linecap="round"/>
<path d="M137 3285V3136" stroke="#BD8B43" stroke-width="5" stroke-linecap="round"/>
<path d="M137 3178C128.177 3184.22 120.5 3172.5 120.5 3172.5M137 3209C145.201 3213.45 152 3213 157.5 3206.5" stroke="#BD8B43" stroke-width="5" stroke-linecap="round"/>
<path d="M337.215 1969.94C349.736 1950.55 362.133 1949.22 372.5 1949V2176.99C372.5 2185.14 342.542 2177.41 324.695 2167.53C310.985 2156.71 305.559 2148.8 302.206 2129.53C301.232 2110.16 303.614 2090.25 311.512 2043.45C318.744 2012.95 324.695 1989.33 337.215 1969.94Z" fill="#F49B7E" stroke="#F49B7E" stroke-width="5" stroke-linecap="round"/>
<path d="M407.785 1969.94C395.264 1950.55 382.867 1949.22 372.5 1949V2176.99C372.5 2185.14 402.458 2177.41 420.305 2167.53C434.015 2156.71 439.441 2148.8 442.794 2129.53C443.768 2110.16 441.386 2090.25 433.488 2043.45C426.256 2012.95 420.305 1989.33 407.785 1969.94Z" fill="#F49B7E" stroke="#F49B7E" stroke-width="5" stroke-linecap="round"/>
<path d="M372.5 2235.15V1965.29" stroke="#BD8B43" stroke-width="5" stroke-linecap="round"/>
<path d="M372.5 2029.65L385.036 2030.86C399.933 2032.29 412.825 2020.58 412.825 2005.61V2005.61M372.5 2078.51L358.828 2081.14C345.001 2083.79 332.175 2073.2 332.175 2059.12V2059.12M372.5 2122.71L379.021 2124.07C394.741 2127.36 410.661 2119.42 417.478 2104.87V2104.87" stroke="#BD8B43" stroke-width="5" stroke-linecap="round"/>
<path d="M47.1396 2194.35C55.7221 2181.06 64.2204 2180.15 71.3267 2180V2336.29C71.3267 2341.87 50.7912 2336.57 38.557 2329.8C29.1589 2322.38 25.4395 2316.96 23.1411 2303.75C22.4735 2290.47 24.1065 2276.82 29.5201 2244.74C34.4779 2223.84 38.557 2207.64 47.1396 2194.35Z" fill="#E0A3CF" stroke="#E0A3CF" stroke-width="5" stroke-linecap="round"/>
<path d="M95.5138 2194.35C86.9312 2181.06 78.433 2180.15 71.3267 2180V2336.29C71.3267 2341.87 91.8622 2336.57 104.096 2329.8C113.494 2322.38 117.214 2316.96 119.512 2303.75C120.18 2290.47 118.547 2276.82 113.133 2244.74C108.175 2223.84 104.096 2207.64 95.5138 2194.35Z" fill="#E0A3CF" stroke="#E0A3CF" stroke-width="5" stroke-linecap="round"/>
<path d="M71.3267 2376.15V2191.16" stroke="#BD8B43" stroke-width="5" stroke-linecap="round"/>
<path d="M71.3267 2235.28L79.9199 2236.11C90.1319 2237.09 98.9691 2229.06 98.9691 2218.81V2218.81M71.3267 2268.77L61.955 2270.58C52.4769 2272.4 43.6843 2265.14 43.6843 2255.48V2255.48M71.3267 2299.07L75.7965 2300.01C86.5726 2302.27 97.4857 2296.82 102.159 2286.85V2286.85" stroke="#BD8B43" stroke-width="5" stroke-linecap="round"/>
<path d="M1021.92 3477.28C1016.41 3468.16 1010.97 3465 998 3465V3580.39C1018.31 3583.15 1030.98 3576 1035.33 3570.73C1039.68 3565.47 1041.34 3549.24 1038.81 3535.64C1038.81 3535.64 1030.09 3497.96 1021.92 3477.28Z" fill="#F49B7E" stroke="#F49B7E" stroke-width="5" stroke-linecap="round"/>
<path d="M972.081 3477.28C977.593 3468.16 983.026 3465 996 3465V3580.39C975.688 3583.15 963.022 3576 958.673 3570.73C954.324 3565.47 952.657 3549.24 955.194 3535.64C955.194 3535.64 963.914 3497.96 972.081 3477.28Z" fill="#F49B7E" stroke="#F49B7E" stroke-width="5" stroke-linecap="round"/>
<path d="M997 3628V3479" stroke="#BD8B43" stroke-width="5" stroke-linecap="round"/>
<path d="M997 3521C1005.82 3527.22 1013.5 3515.5 1013.5 3515.5M997 3552C988.799 3556.45 982 3556 976.5 3549.5" stroke="#BD8B43" stroke-width="5" stroke-linecap="round"/>
<path d="M597.094 3529.6C609.019 3547.86 618.898 3554.85 641.756 3561.98H704.843C719.349 3556.08 741.672 3552.25 750.622 3537.42C754.847 3530.98 755.396 3526.76 750.622 3517.32C737.311 3514.18 730.528 3515.83 719.358 3523.46C724.775 3517.72 727.358 3513.54 728.849 3499.45C722.175 3491.11 717.263 3488.44 704.843 3489.96C690.47 3498.06 686.903 3504.74 681.953 3517.32C684.947 3502.26 686.081 3498.02 679.162 3478.24C666.044 3467.2 658.946 3466.76 647.339 3479.91C641.481 3497.58 638.952 3501.42 647.339 3520.67L621.1 3505.04C613.284 3501.13 584.642 3502.57 597.094 3529.6Z" fill="#53AF7E" stroke="#53AF7E" stroke-width="2" stroke-linecap="round"/>
<path d="M665.763 3532.95C659.933 3512.41 659.252 3502.3 661.296 3486.05" stroke="#429267" stroke-linecap="round"/>
<path d="M695.352 3524.02C702.647 3518.28 706.205 3513.56 711.542 3502.24M704.284 3544.12C718.951 3542.67 726.434 3539.56 738.898 3531.27M637.29 3544.12C619.985 3538.55 612.742 3533.21 603.793 3520.11" stroke="#429267" stroke-linecap="round"/>
<path d="M610.038 3561.25C623.887 3562.48 631.218 3562.81 641.673 3561.25C643.373 3562.11 650.994 3548.97 649.355 3544.98C647.716 3540.98 647.613 3538.73 641.673 3540.01L635.638 3545.42C637.279 3542.29 637.336 3524.25 634.216 3517.86C630.794 3510.86 624.726 3509.28 619.755 3517.86C614.783 3526.45 616.139 3544.98 616.139 3544.98L610.038 3535.71C605.392 3533.66 602.13 3533.91 601 3540.01C601 3548.14 604.615 3552.19 610.038 3561.25Z" fill="#7DC646"/>
<path d="M641.673 3561.25C631.218 3562.81 623.887 3562.48 610.038 3561.25C604.615 3552.19 601 3548.14 601 3540.01C602.13 3533.91 605.392 3533.66 610.038 3535.71L616.139 3544.98C616.139 3544.98 614.783 3526.45 619.755 3517.86C624.726 3509.28 630.794 3510.86 634.216 3517.86C637.638 3524.87 637.238 3545.88 635.12 3545.88L641.673 3540.01C647.613 3538.73 647.716 3540.98 649.355 3544.98C650.994 3548.97 643.373 3562.11 641.673 3561.25Z" stroke="#7DC646"/>
<path d="M625.238 3553.49C624.335 3539.94 624.566 3532.72 626.004 3520.35" stroke="#6DB432" stroke-linecap="round"/>
<path d="M620.884 3529.39C621.102 3532.39 622.274 3533.5 624.726 3535.26C628.83 3533.96 630.616 3532.68 632.86 3529.39M619.755 3540.01C621.88 3541.57 622.961 3542.14 624.726 3542.72C628.135 3542.33 629.764 3541.44 632.182 3538.65M622.918 3521.48C623.805 3523.53 624.353 3524.24 625.404 3524.87C627.698 3524.81 628.643 3524.2 629.697 3522.16M613.428 3551.3L611.639 3548.59M606.423 3540.68L608.957 3544.53M638.961 3553.34L644.836 3544.53M608.957 3544.53C610.243 3543.26 610.718 3542.56 610.49 3541.36M608.957 3544.53C606.964 3544.81 606.238 3544.41 605.293 3543.17M608.957 3544.53L611.639 3548.59M611.639 3548.59C609.716 3549.19 608.589 3549.16 606.423 3547.91M611.639 3548.59C613.228 3548 613.428 3546.78 613.88 3546.11" stroke="#6DB432" stroke-linecap="round"/>
<path d="M645.966 3548.37C644.282 3549.06 643.551 3548.91 642.35 3548.37C641.558 3547.65 641.358 3547 641.673 3545.2M643.48 3552.21C642.139 3552.85 641.395 3552.81 640.091 3551.76C638.766 3550.78 638.56 3549.99 638.735 3548.37" stroke="#6DB432" stroke-linecap="round"/>
<path d="M176.561 2459.66C155.003 2461.58 143.591 2462.09 127.317 2459.66C124.67 2461 112.806 2440.55 115.357 2434.34C117.909 2428.12 118.07 2424.6 127.317 2426.6L136.711 2435.02C134.157 2430.15 134.067 2402.07 138.924 2392.13C144.251 2381.22 153.698 2378.76 161.436 2392.13C169.175 2405.49 167.064 2434.34 167.064 2434.34L176.561 2419.91C183.795 2416.72 188.873 2417.1 190.631 2426.6C190.631 2439.26 185.004 2445.56 176.561 2459.66Z" fill="#7DC646"/>
<path d="M127.317 2459.66C143.591 2462.09 155.003 2461.58 176.561 2459.66C185.004 2445.56 190.631 2439.26 190.631 2426.6C188.873 2417.1 183.795 2416.72 176.561 2419.91L167.064 2434.34C167.064 2434.34 169.175 2405.49 161.436 2392.13C153.698 2378.76 144.251 2381.22 138.924 2392.13C133.598 2403.03 134.22 2435.74 137.517 2435.74L127.317 2426.6C118.07 2424.6 117.909 2428.12 115.357 2434.34C112.806 2440.55 124.67 2461 127.317 2459.66Z" stroke="#7DC646"/>
<path d="M152.9 2447.59C154.306 2426.5 153.946 2415.25 151.707 2395.99" stroke="#6DB432" stroke-linecap="round"/>
<path d="M159.678 2410.06C159.339 2414.75 157.515 2416.46 153.698 2419.21C147.309 2417.19 144.529 2415.19 141.035 2410.06M161.436 2426.6C158.128 2429.02 156.444 2429.92 153.698 2430.82C148.391 2430.22 145.854 2428.83 142.09 2424.49M156.512 2397.75C155.131 2400.94 154.278 2402.05 152.643 2403.03C149.07 2402.94 147.6 2401.99 145.959 2398.81M171.285 2444.18L174.069 2439.96M182.189 2427.65L178.245 2433.63M131.538 2447.35L122.392 2433.63M178.245 2433.63C176.244 2431.65 175.504 2430.57 175.858 2428.71M178.245 2433.63C181.347 2434.08 182.478 2433.45 183.948 2431.52M178.245 2433.63L174.069 2439.96M174.069 2439.96C177.064 2440.9 178.818 2440.85 182.189 2438.91M174.069 2439.96C171.596 2439.04 171.285 2437.15 170.582 2436.09" stroke="#6DB432" stroke-linecap="round"/>
<path d="M120.633 2439.61C123.255 2440.69 124.393 2440.45 126.261 2439.61C127.496 2438.49 127.807 2437.49 127.317 2434.69M124.503 2445.59C126.591 2446.58 127.749 2446.53 129.779 2444.89C131.841 2443.36 132.163 2442.15 131.889 2439.61" stroke="#6DB432" stroke-linecap="round"/>
<path d="M416.055 2224.57C411.339 2231.79 407.432 2234.56 398.392 2237.38H373.441C367.704 2235.04 358.876 2233.53 355.336 2227.66C353.665 2225.12 353.448 2223.45 355.336 2219.71C360.6 2218.47 363.283 2219.13 367.701 2222.14C365.558 2219.87 364.537 2218.22 363.947 2212.65C366.586 2209.35 368.529 2208.29 373.441 2208.89C379.126 2212.1 380.536 2214.74 382.494 2219.71C381.31 2213.76 380.862 2212.08 383.598 2204.26C388.786 2199.89 391.593 2199.72 396.184 2204.92C398.501 2211.91 399.501 2213.43 396.184 2221.04L406.561 2214.86C409.652 2213.31 420.98 2213.88 416.055 2224.57Z" fill="#53AF7E" stroke="#53AF7E" stroke-width="2" stroke-linecap="round"/>
<path d="M388.897 2225.9C391.203 2217.77 391.472 2213.77 390.664 2207.35" stroke="#429267" stroke-linecap="round"/>
<path d="M377.195 2222.36C374.31 2220.1 372.902 2218.23 370.792 2213.75M373.662 2230.31C367.861 2229.74 364.902 2228.51 359.973 2225.23M400.158 2230.31C407.002 2228.11 409.866 2226 413.406 2220.82" stroke="#429267" stroke-linecap="round"/>
<path d="M877.214 2724.7C879.262 2741.2 888.477 2750 888.477 2750H922.266L941.72 2724.7C950.599 2711.89 952.221 2704.19 941.72 2688.41C930.35 2683.28 927.452 2696.16 922.304 2719.03L922.266 2719.2C926.401 2684.78 925.341 2672.64 913.05 2673.01C899.194 2688.09 896.915 2698.51 898.716 2719.2C898.716 2719.2 894.113 2708.7 888.477 2708.2C888.477 2708.2 875.166 2708.2 877.214 2724.7Z" fill="#53AF7E" stroke="#53AF7E" stroke-width="2" stroke-linecap="round"/>
<path d="M243.408 2999.39C239.729 3005.02 236.681 3007.18 229.629 3009.38H210.166C205.69 3007.56 198.803 3006.38 196.042 3001.8C194.739 2999.81 194.569 2998.51 196.042 2995.6C200.149 2994.63 202.241 2995.14 205.688 2997.49C204.017 2995.72 203.22 2994.43 202.76 2990.09C204.818 2987.51 206.334 2986.69 210.166 2987.16C214.6 2989.66 215.701 2991.72 217.228 2995.6C216.304 2990.95 215.954 2989.64 218.089 2983.54C222.136 2980.14 224.326 2980 227.907 2984.06C229.714 2989.51 230.494 2990.69 227.907 2996.63L236.002 2991.81C238.413 2990.6 247.25 2991.05 243.408 2999.39Z" fill="#53AF7E" stroke="#53AF7E" stroke-width="2" stroke-linecap="round"/>
<path d="M222.223 3000.42C224.021 2994.08 224.231 2990.97 223.601 2985.95" stroke="#429267" stroke-linecap="round"/>
<path d="M213.094 2997.67C210.843 2995.9 209.746 2994.44 208.099 2990.95M210.338 3003.87C205.813 3003.42 203.505 3002.46 199.659 2999.9M231.007 3003.87C236.346 3002.15 238.581 3000.5 241.342 2996.46" stroke="#429267" stroke-linecap="round"/>
<path d="M298.354 3018.46L276.232 3024.61C271.972 3025.79 268.524 3028.92 266.93 3033.04C264.619 3039.02 266.665 3045.8 271.895 3049.51L286.861 3060.1C293.202 3064.59 300.778 3067 308.546 3067H332.451C336.102 3067 339.726 3066.37 343.164 3065.15L354.497 3061.1C364.379 3057.58 369.685 3046.85 366.489 3036.86C364.429 3030.42 359.169 3025.51 352.6 3023.89L328.586 3018C318.636 3015.56 308.225 3015.71 298.354 3018.46Z" fill="#9A9A9A" stroke="#9A9A9A" stroke-opacity="0.63" stroke-width="3" stroke-linecap="square"/>
<path d="M298.354 3013.19L276.232 3019.34C271.972 3020.52 268.524 3023.65 266.93 3027.77C264.619 3033.75 266.665 3040.53 271.895 3044.23L286.861 3054.83C293.202 3059.32 300.778 3061.73 308.546 3061.73H332.451C336.102 3061.73 339.726 3061.1 343.164 3059.87L354.497 3055.83C364.379 3052.31 369.685 3041.58 366.489 3031.59C364.429 3025.14 359.169 3020.23 352.6 3018.62L328.586 3012.73C318.636 3010.28 308.225 3010.44 298.354 3013.19Z" fill="#C3C3C3" stroke="#C3C3C3" stroke-opacity="0.63" stroke-width="3" stroke-linecap="square"/>
<path d="M86.335 3678.33C92.0206 3677.32 96.1285 3676.18 99.3219 3674.72C107.123 3671.16 104.316 3658.66 97.0872 3654.04C93.1428 3651.52 91.1829 3652.29 86.5344 3652.83L70.1596 3654.74C67.0903 3655.09 64.1266 3656.07 61.3983 3657.52C53.3384 3661.8 44.4742 3666.27 47.6681 3670.25C51.2706 3674.74 66.0655 3678.08 82.2187 3678.63C83.5945 3678.67 84.9797 3678.57 86.335 3678.33Z" fill="#9A9A9A" stroke="#9A9A9A" stroke-opacity="0.63" stroke-width="3"/>
<path d="M86.335 3674.33C92.0206 3673.32 96.1285 3672.18 99.3219 3670.72C107.123 3667.16 104.316 3654.66 97.0872 3650.04C93.1428 3647.52 91.1829 3648.29 86.5344 3648.83L70.1596 3650.74C67.0903 3651.09 64.1266 3652.07 61.3983 3653.52C53.3384 3657.8 44.4742 3662.27 47.6681 3666.25C51.2706 3670.74 66.0655 3674.08 82.2187 3674.63C83.5945 3674.67 84.9797 3674.57 86.335 3674.33Z" fill="#C3C3C3" stroke="#C3C3C3" stroke-opacity="0.63" stroke-width="3"/>
<path d="M760.669 2290.36L775.544 2294.5C778.408 2295.29 780.727 2297.39 781.799 2300.17C783.353 2304.19 781.977 2308.75 778.46 2311.24L768.397 2318.36C764.134 2321.38 759.039 2323 753.816 2323H737.742C735.287 2323 732.85 2322.58 730.538 2321.75L722.918 2319.04C716.273 2316.67 712.705 2309.45 714.854 2302.73C716.24 2298.4 719.776 2295.1 724.193 2294.02L740.341 2290.05C747.031 2288.41 754.032 2288.51 760.669 2290.36Z" fill="#9A9A9A" stroke="#9A9A9A" stroke-opacity="0.63" stroke-width="3" stroke-linecap="square"/>
<path d="M760.669 2286.81L775.544 2290.95C778.408 2291.75 780.727 2293.85 781.799 2296.62C783.353 2300.64 781.977 2305.2 778.46 2307.69L768.397 2314.82C764.134 2317.83 759.039 2319.45 753.816 2319.45H737.742C735.287 2319.45 732.85 2319.03 730.538 2318.21L722.918 2315.49C716.273 2313.12 712.705 2305.91 714.854 2299.19C716.24 2294.86 719.776 2291.55 724.193 2290.47L740.341 2286.51C747.031 2284.86 754.032 2284.97 760.669 2286.81Z" fill="#C3C3C3" stroke="#C3C3C3" stroke-opacity="0.63" stroke-width="3" stroke-linecap="square"/>
<path d="M81.335 1995.33C87.0206 1994.32 91.1285 1993.18 94.3219 1991.72C102.123 1988.16 99.316 1975.66 92.0872 1971.04C88.1428 1968.52 86.1829 1969.29 81.5344 1969.83L65.1596 1971.74C62.0903 1972.09 59.1266 1973.07 56.3983 1974.52C48.3384 1978.8 39.4742 1983.27 42.6681 1987.25C46.2706 1991.74 61.0655 1995.08 77.2187 1995.63C78.5945 1995.67 79.9797 1995.57 81.335 1995.33Z" fill="#9A9A9A" stroke="#9A9A9A" stroke-opacity="0.63" stroke-width="3"/>
<path d="M81.335 1991.33C87.0206 1990.32 91.1285 1989.18 94.3219 1987.72C102.123 1984.16 99.316 1971.66 92.0872 1967.04C88.1428 1964.52 86.1829 1965.29 81.5344 1965.83L65.1596 1967.74C62.0903 1968.09 59.1266 1969.07 56.3983 1970.52C48.3384 1974.8 39.4742 1979.27 42.6681 1983.25C46.2706 1987.74 61.0655 1991.08 77.2187 1991.63C78.5945 1991.67 79.9797 1991.57 81.335 1991.33Z" fill="#C3C3C3" stroke="#C3C3C3" stroke-opacity="0.63" stroke-width="3"/>
<path d="M949.813 2078.16C974.042 2080.31 986.867 2080.89 1005.16 2078.16C1008.13 2079.66 1021.47 2056.68 1018.6 2049.69C1015.73 2042.71 1015.55 2038.76 1005.16 2041L994.599 2050.46C997.47 2044.99 997.571 2013.43 992.112 2002.26C986.126 1990 975.509 1987.23 966.812 2002.26C958.115 2017.28 960.486 2049.69 960.486 2049.69L949.813 2033.49C941.683 2029.9 935.977 2030.32 934 2041C934 2055.23 940.324 2062.31 949.813 2078.16Z" fill="#7DC646"/>
<path d="M1005.16 2078.16C986.867 2080.89 974.042 2080.31 949.813 2078.16C940.324 2062.31 934 2055.23 934 2041C935.977 2030.32 941.683 2029.9 949.813 2033.49L960.486 2049.69C960.486 2049.69 958.115 2017.28 966.812 2002.26C975.509 1987.23 986.126 1990 992.112 2002.26C998.098 2014.51 997.399 2051.28 993.693 2051.28L1005.16 2041C1015.55 2038.76 1015.73 2042.71 1018.6 2049.69C1021.47 2056.68 1008.13 2079.66 1005.16 2078.16Z" stroke="#7DC646"/>
<path d="M976.405 2064.59C974.826 2040.89 975.229 2028.25 977.746 2006.6" stroke="#6DB432" stroke-linecap="round"/>
<path d="M968.788 2022.42C969.169 2027.68 971.219 2029.61 975.509 2032.7C982.689 2030.42 985.814 2028.18 989.74 2022.42M966.812 2041C970.529 2043.72 972.422 2044.73 975.509 2045.74C981.473 2045.07 984.324 2043.5 988.554 2038.62M972.346 2008.58C973.898 2012.16 974.857 2013.41 976.695 2014.51C980.709 2014.41 982.362 2013.34 984.206 2009.77M955.743 2060.76L952.614 2056.02M943.488 2042.18L947.92 2048.9M1000.41 2064.32L1010.69 2048.9M947.92 2048.9C950.17 2046.68 951.001 2045.46 950.603 2043.37M947.92 2048.9C944.435 2049.41 943.164 2048.69 941.511 2046.53M947.92 2048.9L952.614 2056.02M952.614 2056.02C949.249 2057.07 947.277 2057.01 943.488 2054.83M952.614 2056.02C955.394 2054.98 955.743 2052.86 956.533 2051.67" stroke="#6DB432" stroke-linecap="round"/>
<path d="M1012.67 2055.62C1009.72 2056.84 1008.44 2056.57 1006.34 2055.62C1004.96 2054.36 1004.61 2053.24 1005.16 2050.09M1008.32 2062.34C1005.97 2063.46 1004.67 2063.4 1002.39 2061.55C1000.07 2059.84 999.711 2058.47 1000.02 2055.62" stroke="#6DB432" stroke-linecap="round"/>
</g>
<g clip-path="url(#clip2_22_197)">
<rect width="1080" height="1920" fill="#A6DA62"/>
<g filter="url(#filter2_d_22_197)">
<path d="M538 1899.5V1899.5C538 1811 466.257 1739.26 377.757 1739.26H359C260.141 1739.26 180 1659.12 180 1560.26V1545.95C180 1439.19 266.548 1352.64 373.31 1352.64H704.542C812.49 1352.64 900 1265.13 900 1157.18V1157.18C900 1049.23 812.491 961.722 704.542 961.722H371.162C265.586 961.722 180 876.136 180 770.56V770.56C180 664.984 265.586 579.398 371.162 579.398H708.301C814.173 579.398 900 493.571 900 387.699V377C900 277.036 818.964 196 719 196H715C617.246 196 538 116.754 538 19V19" stroke="white" stroke-opacity="0.63" stroke-width="37" stroke-linecap="square" shape-rendering="crispEdges"/>
</g>
<path d="M637 385H711" stroke="#9BD552" stroke-width="256" stroke-linecap="round"/>
<path d="M674 471H435" stroke="#9BD552" stroke-width="83" stroke-linecap="round"/>
<path d="M684 299H520" stroke="#9BD552" stroke-width="83" stroke-linecap="round"/>
<path d="M441 385H609" stroke="#A6DA62" stroke-width="89" stroke-linecap="round"/>
<path d="M573 1545H499" stroke="#9BD552" stroke-width="256" stroke-linecap="round"/>
<path d="M536 1631H775" stroke="#9BD552" stroke-width="83" stroke-linecap="round"/>
<path d="M526 1459H690" stroke="#9BD552" stroke-width="83" stroke-linecap="round"/>
<path d="M769 1545H601" stroke="#A6DA62" stroke-width="89" stroke-linecap="round"/>
<path d="M244 201H328" stroke="#9BD552" stroke-width="55" stroke-linecap="round"/>
<path d="M373 765H609" stroke="#9BD552" stroke-width="235" stroke-linecap="round"/>
<path d="M862 1431H992" stroke="#9BD552" stroke-width="66" stroke-linecap="round"/>
<path d="M228 1125H532" stroke="#9BD552" stroke-width="151" stroke-linecap="round"/>
<path d="M692 1249H758" stroke="#9BD552" stroke-width="68" stroke-linecap="round"/>
<path d="M324 1859H390" stroke="#9BD552" stroke-width="68" stroke-linecap="round"/>
<path d="M848.215 561.938C860.736 542.551 873.133 541.217 883.5 541V768.993C883.5 777.136 853.542 769.413 835.695 759.527C821.985 748.708 816.559 740.798 813.206 721.529C812.232 702.161 814.614 682.248 822.512 635.449C829.744 604.953 835.695 581.325 848.215 561.938Z" fill="#F2CB78" stroke="#F2CB78" stroke-width="5" stroke-linecap="round"/>
<path d="M918.785 561.938C906.264 542.551 893.867 541.217 883.5 541V768.993C883.5 777.136 913.458 769.413 931.305 759.527C945.015 748.708 950.441 740.798 953.794 721.529C954.768 702.161 952.386 682.248 944.488 635.449C937.256 604.953 931.305 581.325 918.785 561.938Z" fill="#F2CB78" stroke="#F2CB78" stroke-width="5" stroke-linecap="round"/>
<path d="M888.153 827.155V557.285" stroke="#BD8B43" stroke-width="5" stroke-linecap="round"/>
<path d="M888.153 621.65L875.617 622.856C860.72 624.288 847.828 612.576 847.828 597.61V597.61M888.153 670.506L901.825 673.135C915.651 675.794 928.478 665.199 928.478 651.119V651.119M888.153 714.709L881.632 716.074C865.912 719.364 849.992 711.415 843.175 696.873V696.873" stroke="#BD8B43" stroke-width="5" stroke-linecap="round"/>
<path d="M980.919 676.285C975.407 667.164 969.974 664 957 664V779.387C977.312 782.146 989.978 775 994.327 769.735C998.676 764.47 1000.34 748.237 997.806 734.636C997.806 734.636 989.086 696.96 980.919 676.285Z" fill="#E0A3CF" stroke="#E0A3CF" stroke-width="5" stroke-linecap="round"/>
<path d="M931.081 676.285C936.593 667.164 942.026 664 955 664V779.387C934.688 782.146 922.022 775 917.673 769.735C913.324 764.47 911.657 748.237 914.194 734.636C914.194 734.636 922.914 696.96 931.081 676.285Z" fill="#E0A3CF" stroke="#E0A3CF" stroke-width="5" stroke-linecap="round"/>
<path d="M956 827V678" stroke="#BD8B43" stroke-width="5" stroke-linecap="round"/>
<path d="M956 720C964.823 726.217 972.5 714.5 972.5 714.5M956 751C947.799 755.447 941 755 935.5 748.5" stroke="#BD8B43" stroke-width="5" stroke-linecap="round"/>
<path d="M112.081 1214.28C117.593 1205.16 123.026 1202 136 1202V1317.39C115.688 1320.15 103.022 1313 98.6727 1307.73C94.3239 1302.47 92.6572 1286.24 95.1937 1272.64C95.1937 1272.64 103.914 1234.96 112.081 1214.28Z" fill="#F2CB78" stroke="#F2CB78" stroke-width="5" stroke-linecap="round"/>
<path d="M161.919 1214.28C156.407 1205.16 150.974 1202 138 1202V1317.39C158.312 1320.15 170.978 1313 175.327 1307.73C179.676 1302.47 181.343 1286.24 178.806 1272.64C178.806 1272.64 170.086 1234.96 161.919 1214.28Z" fill="#F2CB78" stroke="#F2CB78" stroke-width="5" stroke-linecap="round"/>
<path d="M137 1365V1216" stroke="#BD8B43" stroke-width="5" stroke-linecap="round"/>
<path d="M137 1258C128.177 1264.22 120.5 1252.5 120.5 1252.5M137 1289C145.201 1293.45 152 1293 157.5 1286.5" stroke="#BD8B43" stroke-width="5" stroke-linecap="round"/>
<path d="M337.215 49.9381C349.736 30.551 362.133 29.2172 372.5 29V256.993C372.5 265.136 342.542 257.413 324.695 247.527C310.985 236.708 305.559 228.798 302.206 209.529C301.232 190.161 303.614 170.248 311.512 123.449C318.744 92.9533 324.695 69.3253 337.215 49.9381Z" fill="#F49B7E" stroke="#F49B7E" stroke-width="5" stroke-linecap="round"/>
<path d="M407.785 49.9381C395.264 30.551 382.867 29.2172 372.5 29V256.993C372.5 265.136 402.458 257.413 420.305 247.527C434.015 236.708 439.441 228.798 442.794 209.529C443.768 190.161 441.386 170.248 433.488 123.449C426.256 92.9533 420.305 69.3253 407.785 49.9381Z" fill="#F49B7E" stroke="#F49B7E" stroke-width="5" stroke-linecap="round"/>
<path d="M372.5 315.155V45.2852" stroke="#BD8B43" stroke-width="5" stroke-linecap="round"/>
<path d="M372.5 109.65L385.036 110.856C399.933 112.288 412.825 100.576 412.825 85.6104V85.6104M372.5 158.506L358.828 161.135C345.001 163.794 332.175 153.199 332.175 139.119V139.119M372.5 202.709L379.021 204.074C394.741 207.364 410.661 199.415 417.478 184.873V184.873" stroke="#BD8B43" stroke-width="5" stroke-linecap="round"/>
<path d="M47.1396 274.353C55.7221 261.063 64.2204 260.149 71.3267 260V416.286C71.3267 421.867 50.7912 416.574 38.557 409.797C29.1589 402.381 25.4395 396.958 23.1411 383.75C22.4735 370.473 24.1065 356.823 29.5201 324.744C34.4779 303.839 38.557 287.642 47.1396 274.353Z" fill="#E0A3CF" stroke="#E0A3CF" stroke-width="5" stroke-linecap="round"/>
<path d="M95.5138 274.353C86.9312 261.063 78.433 260.149 71.3267 260V416.286C71.3267 421.867 91.8622 416.574 104.096 409.797C113.494 402.381 117.214 396.958 119.512 383.75C120.18 370.473 118.547 356.823 113.133 324.744C108.175 303.839 104.096 287.642 95.5138 274.353Z" fill="#E0A3CF" stroke="#E0A3CF" stroke-width="5" stroke-linecap="round"/>
<path d="M71.3267 456.154V271.163" stroke="#BD8B43" stroke-width="5" stroke-linecap="round"/>
<path d="M71.3267 315.285L79.9199 316.111C90.1319 317.093 98.9691 309.065 98.9691 298.806V298.806M71.3267 348.775L61.955 350.577C52.4769 352.4 43.6843 345.137 43.6843 335.485V335.485M71.3267 379.075L75.7965 380.01C86.5726 382.266 97.4857 376.817 102.159 366.848V366.848" stroke="#BD8B43" stroke-width="5" stroke-linecap="round"/>
<path d="M1021.92 1557.28C1016.41 1548.16 1010.97 1545 998 1545V1660.39C1018.31 1663.15 1030.98 1656 1035.33 1650.73C1039.68 1645.47 1041.34 1629.24 1038.81 1615.64C1038.81 1615.64 1030.09 1577.96 1021.92 1557.28Z" fill="#F49B7E" stroke="#F49B7E" stroke-width="5" stroke-linecap="round"/>
<path d="M972.081 1557.28C977.593 1548.16 983.026 1545 996 1545V1660.39C975.688 1663.15 963.022 1656 958.673 1650.73C954.324 1645.47 952.657 1629.24 955.194 1615.64C955.194 1615.64 963.914 1577.96 972.081 1557.28Z" fill="#F49B7E" stroke="#F49B7E" stroke-width="5" stroke-linecap="round"/>
<path d="M997 1708V1559" stroke="#BD8B43" stroke-width="5" stroke-linecap="round"/>
<path d="M997 1601C1005.82 1607.22 1013.5 1595.5 1013.5 1595.5M997 1632C988.799 1636.45 982 1636 976.5 1629.5" stroke="#BD8B43" stroke-width="5" stroke-linecap="round"/>
<path d="M597.094 1609.6C609.019 1627.86 618.898 1634.85 641.756 1641.98H704.843C719.349 1636.08 741.672 1632.25 750.622 1617.42C754.847 1610.98 755.396 1606.76 750.622 1597.32C737.311 1594.18 730.528 1595.83 719.358 1603.46C724.775 1597.72 727.358 1593.54 728.849 1579.45C722.175 1571.11 717.263 1568.44 704.843 1569.96C690.47 1578.06 686.903 1584.74 681.953 1597.32C684.947 1582.26 686.081 1578.02 679.162 1558.24C666.044 1547.2 658.946 1546.76 647.339 1559.91C641.481 1577.58 638.952 1581.42 647.339 1600.67L621.1 1585.04C613.284 1581.13 584.642 1582.57 597.094 1609.6Z" fill="#53AF7E" stroke="#53AF7E" stroke-width="2" stroke-linecap="round"/>
<path d="M665.763 1612.95C659.933 1592.41 659.252 1582.3 661.296 1566.05" stroke="#429267" stroke-linecap="round"/>
<path d="M695.352 1604.02C702.647 1598.28 706.205 1593.56 711.542 1582.24M704.284 1624.12C718.951 1622.67 726.434 1619.56 738.898 1611.27M637.29 1624.12C619.985 1618.55 612.742 1613.21 603.793 1600.11" stroke="#429267" stroke-linecap="round"/>
<path d="M610.038 1641.25C623.887 1642.48 631.218 1642.81 641.673 1641.25C643.373 1642.11 650.994 1628.97 649.355 1624.98C647.716 1620.98 647.613 1618.73 641.673 1620.01L635.638 1625.42C637.279 1622.29 637.336 1604.25 634.216 1597.86C630.794 1590.86 624.726 1589.28 619.755 1597.86C614.783 1606.45 616.139 1624.98 616.139 1624.98L610.038 1615.71C605.392 1613.66 602.13 1613.91 601 1620.01C601 1628.14 604.615 1632.19 610.038 1641.25Z" fill="#7DC646"/>
<path d="M641.673 1641.25C631.218 1642.81 623.887 1642.48 610.038 1641.25C604.615 1632.19 601 1628.14 601 1620.01C602.13 1613.91 605.392 1613.66 610.038 1615.71L616.139 1624.98C616.139 1624.98 614.783 1606.45 619.755 1597.86C624.726 1589.28 630.794 1590.86 634.216 1597.86C637.638 1604.87 637.238 1625.88 635.12 1625.88L641.673 1620.01C647.613 1618.73 647.716 1620.98 649.355 1624.98C650.994 1628.97 643.373 1642.11 641.673 1641.25Z" stroke="#7DC646"/>
<path d="M625.238 1633.49C624.335 1619.94 624.566 1612.72 626.004 1600.35" stroke="#6DB432" stroke-linecap="round"/>
<path d="M620.884 1609.39C621.102 1612.39 622.274 1613.5 624.726 1615.26C628.83 1613.96 630.616 1612.68 632.86 1609.39M619.755 1620.01C621.88 1621.57 622.961 1622.14 624.726 1622.72C628.135 1622.33 629.764 1621.44 632.182 1618.65M622.918 1601.48C623.805 1603.53 624.353 1604.24 625.404 1604.87C627.698 1604.81 628.643 1604.2 629.697 1602.16M613.428 1631.3L611.639 1628.59M606.423 1620.68L608.957 1624.53M638.961 1633.34L644.836 1624.53M608.957 1624.53C610.243 1623.26 610.718 1622.56 610.49 1621.36M608.957 1624.53C606.964 1624.81 606.238 1624.41 605.293 1623.17M608.957 1624.53L611.639 1628.59M611.639 1628.59C609.716 1629.19 608.589 1629.16 606.423 1627.91M611.639 1628.59C613.228 1628 613.428 1626.78 613.88 1626.11" stroke="#6DB432" stroke-linecap="round"/>
<path d="M645.966 1628.37C644.282 1629.06 643.551 1628.91 642.35 1628.37C641.558 1627.65 641.358 1627 641.673 1625.2M643.48 1632.21C642.139 1632.85 641.395 1632.81 640.091 1631.76C638.766 1630.78 638.56 1629.99 638.735 1628.37" stroke="#6DB432" stroke-linecap="round"/>
<path d="M176.561 539.661C155.003 541.576 143.591 542.094 127.317 539.661C124.67 541 112.806 520.549 115.357 514.335C117.909 508.121 118.07 504.605 127.317 506.597L136.711 515.019C134.157 510.153 134.067 482.071 138.924 472.125C144.251 461.22 153.698 458.759 161.436 472.125C169.175 485.492 167.064 514.335 167.064 514.335L176.561 499.913C183.795 496.725 188.873 497.099 190.631 506.597C190.631 519.259 185.004 525.559 176.561 539.661Z" fill="#7DC646"/>
<path d="M127.317 539.661C143.591 542.094 155.003 541.576 176.561 539.661C185.004 525.559 190.631 519.259 190.631 506.597C188.873 497.099 183.795 496.725 176.561 499.913L167.064 514.335C167.064 514.335 169.175 485.492 161.436 472.125C153.698 458.759 144.251 461.22 138.924 472.125C133.598 483.031 134.22 515.743 137.517 515.742L127.317 506.597C118.07 504.605 117.909 508.121 115.357 514.335C112.806 520.549 124.67 541 127.317 539.661Z" stroke="#7DC646"/>
<path d="M152.9 527.593C154.306 506.501 153.946 495.253 151.707 475.994" stroke="#6DB432" stroke-linecap="round"/>
<path d="M159.678 490.064C159.339 494.748 157.515 496.463 153.698 499.21C147.309 497.188 144.529 495.194 141.035 490.064M161.436 506.596C158.128 509.024 156.444 509.92 153.698 510.817C148.391 510.221 145.854 508.826 142.09 504.486M156.512 477.753C155.131 480.942 154.278 482.051 152.643 483.029C149.07 482.935 147.6 481.987 145.959 478.808M171.285 524.184L174.069 519.963M182.189 507.652L178.245 513.631M131.538 527.349L122.392 513.631M178.245 513.631C176.244 511.654 175.504 510.565 175.858 508.707M178.245 513.631C181.347 514.078 182.478 513.445 183.948 511.521M178.245 513.631L174.069 519.963M174.069 519.963C177.064 520.899 178.818 520.848 182.189 518.907M174.069 519.963C171.596 519.037 171.285 517.149 170.582 516.093" stroke="#6DB432" stroke-linecap="round"/>
<path d="M120.633 519.611C123.255 520.69 124.393 520.45 126.261 519.611C127.496 518.489 127.807 517.489 127.317 514.687M124.503 525.591C126.591 526.585 127.749 526.528 129.779 524.887C131.841 523.361 132.163 522.145 131.889 519.611" stroke="#6DB432" stroke-linecap="round"/>
<path d="M416.055 304.571C411.339 311.793 407.432 314.558 398.392 317.378H373.441C367.704 315.045 358.876 313.53 355.336 307.663C353.665 305.115 353.448 303.447 355.336 299.714C360.6 298.474 363.283 299.126 367.701 302.143C365.558 299.873 364.537 298.219 363.947 292.648C366.586 289.348 368.529 288.294 373.441 288.895C379.126 292.098 380.536 294.739 382.494 299.714C381.31 293.757 380.862 292.081 383.598 284.258C388.786 279.894 391.593 279.72 396.184 284.92C398.501 291.906 399.501 293.427 396.184 301.039L406.561 294.856C409.652 293.311 420.98 293.882 416.055 304.571Z" fill="#53AF7E" stroke="#53AF7E" stroke-width="2" stroke-linecap="round"/>
<path d="M388.897 305.896C391.203 297.771 391.472 293.774 390.664 287.349" stroke="#429267" stroke-linecap="round"/>
<path d="M377.195 302.364C374.31 300.096 372.902 298.226 370.792 293.752M373.662 310.312C367.861 309.742 364.902 308.512 359.973 305.234M400.158 310.312C407.002 308.112 409.866 306 413.406 300.818" stroke="#429267" stroke-linecap="round"/>
<path d="M877.214 804.703C879.262 821.201 888.477 830 888.477 830H922.266L941.72 804.703C950.599 791.891 952.221 784.192 941.72 768.406C930.35 763.277 927.452 776.155 922.304 799.031L922.266 799.203C926.401 764.78 925.341 752.645 913.05 753.008C899.194 768.091 896.915 778.513 898.716 799.203C898.716 799.203 894.113 788.696 888.477 788.204C888.477 788.204 875.166 788.204 877.214 804.703Z" fill="#53AF7E" stroke="#53AF7E" stroke-width="2" stroke-linecap="round"/>
<path d="M243.408 1079.39C239.729 1085.02 236.681 1087.18 229.629 1089.38H210.166C205.69 1087.56 198.803 1086.38 196.042 1081.8C194.739 1079.81 194.569 1078.51 196.042 1075.6C200.149 1074.63 202.241 1075.14 205.688 1077.49C204.017 1075.72 203.22 1074.43 202.76 1070.09C204.818 1067.51 206.334 1066.69 210.166 1067.16C214.6 1069.66 215.701 1071.72 217.228 1075.6C216.304 1070.95 215.954 1069.64 218.089 1063.54C222.136 1060.14 224.326 1060 227.907 1064.06C229.714 1069.51 230.494 1070.69 227.907 1076.63L236.002 1071.81C238.413 1070.6 247.25 1071.05 243.408 1079.39Z" fill="#53AF7E" stroke="#53AF7E" stroke-width="2" stroke-linecap="round"/>
<path d="M222.223 1080.42C224.021 1074.08 224.231 1070.96 223.601 1065.95" stroke="#429267" stroke-linecap="round"/>
<path d="M213.094 1077.67C210.843 1075.9 209.746 1074.44 208.099 1070.95M210.338 1083.87C205.813 1083.42 203.505 1082.46 199.659 1079.9M231.007 1083.87C236.346 1082.15 238.581 1080.5 241.342 1076.46" stroke="#429267" stroke-linecap="round"/>
<path d="M298.354 1098.46L276.232 1104.61C271.972 1105.79 268.524 1108.92 266.93 1113.04C264.619 1119.02 266.665 1125.8 271.895 1129.51L286.861 1140.1C293.202 1144.59 300.778 1147 308.546 1147H332.451C336.102 1147 339.726 1146.37 343.164 1145.15L354.497 1141.1C364.379 1137.58 369.685 1126.85 366.489 1116.86C364.429 1110.42 359.169 1105.51 352.6 1103.89L328.586 1098C318.636 1095.56 308.225 1095.71 298.354 1098.46Z" fill="#9A9A9A" stroke="#9A9A9A" stroke-opacity="0.63" stroke-width="3" stroke-linecap="square"/>
<path d="M298.354 1093.19L276.232 1099.34C271.972 1100.52 268.524 1103.65 266.93 1107.77C264.619 1113.75 266.665 1120.53 271.895 1124.23L286.861 1134.83C293.202 1139.32 300.778 1141.73 308.546 1141.73H332.451C336.102 1141.73 339.726 1141.1 343.164 1139.87L354.497 1135.83C364.379 1132.31 369.685 1121.58 366.489 1111.59C364.429 1105.14 359.169 1100.23 352.6 1098.62L328.586 1092.73C318.636 1090.28 308.225 1090.44 298.354 1093.19Z" fill="#C3C3C3" stroke="#C3C3C3" stroke-opacity="0.63" stroke-width="3" stroke-linecap="square"/>
<path d="M86.335 1758.33C92.0206 1757.32 96.1285 1756.18 99.3219 1754.72C107.123 1751.16 104.316 1738.66 97.0872 1734.04C93.1428 1731.52 91.1829 1732.29 86.5344 1732.83L70.1596 1734.74C67.0903 1735.09 64.1266 1736.07 61.3983 1737.52C53.3384 1741.8 44.4742 1746.27 47.6681 1750.25C51.2706 1754.74 66.0655 1758.08 82.2187 1758.63C83.5945 1758.67 84.9797 1758.57 86.335 1758.33Z" fill="#9A9A9A" stroke="#9A9A9A" stroke-opacity="0.63" stroke-width="3"/>
<path d="M86.335 1754.33C92.0206 1753.32 96.1285 1752.18 99.3219 1750.72C107.123 1747.16 104.316 1734.66 97.0872 1730.04C93.1428 1727.52 91.1829 1728.29 86.5344 1728.83L70.1596 1730.74C67.0903 1731.09 64.1266 1732.07 61.3983 1733.52C53.3384 1737.8 44.4742 1742.27 47.6681 1746.25C51.2706 1750.74 66.0655 1754.08 82.2187 1754.63C83.5945 1754.67 84.9797 1754.57 86.335 1754.33Z" fill="#C3C3C3" stroke="#C3C3C3" stroke-opacity="0.63" stroke-width="3"/>
<path d="M760.669 370.36L775.544 374.495C778.408 375.291 780.727 377.394 781.799 380.167C783.353 384.186 781.977 388.747 778.46 391.237L768.397 398.361C764.134 401.379 759.039 403 753.816 403H737.742C735.287 403 732.85 402.578 730.538 401.754L722.918 399.036C716.273 396.666 712.705 389.453 714.854 382.733C716.24 378.401 719.776 375.1 724.193 374.015L740.341 370.051C747.031 368.408 754.032 368.515 760.669 370.36Z" fill="#9A9A9A" stroke="#9A9A9A" stroke-opacity="0.63" stroke-width="3" stroke-linecap="square"/>
<path d="M760.669 366.814L775.544 370.95C778.408 371.746 780.727 373.849 781.799 376.621C783.353 380.64 781.977 385.201 778.46 387.691L768.397 394.816C764.134 397.834 759.039 399.455 753.816 399.455H737.742C735.287 399.455 732.85 399.033 730.538 398.208L722.918 395.49C716.273 393.12 712.705 385.907 714.854 379.188C716.24 374.855 719.776 371.554 724.193 370.47L740.341 366.505C747.031 364.863 754.032 364.969 760.669 366.814Z" fill="#C3C3C3" stroke="#C3C3C3" stroke-opacity="0.63" stroke-width="3" stroke-linecap="square"/>
<path d="M81.335 75.3331C87.0206 74.3229 91.1285 73.1804 94.3219 71.7218C102.123 68.1583 99.316 55.6579 92.0872 51.0423C88.1428 48.5238 86.1829 49.2903 81.5344 49.831L65.1596 51.7357C62.0903 52.0927 59.1266 53.0677 56.3983 54.5184C48.3384 58.8043 39.4742 63.2746 42.6681 67.2549C46.2706 71.7445 61.0655 75.0795 77.2187 75.6257C78.5945 75.6722 79.9797 75.5739 81.335 75.3331Z" fill="#9A9A9A" stroke="#9A9A9A" stroke-opacity="0.63" stroke-width="3"/>
<path d="M81.335 71.3331C87.0206 70.3229 91.1285 69.1804 94.3219 67.7218C102.123 64.1583 99.316 51.6579 92.0872 47.0423C88.1428 44.5238 86.1829 45.2903 81.5344 45.831L65.1596 47.7357C62.0903 48.0927 59.1266 49.0677 56.3983 50.5184C48.3384 54.8043 39.4742 59.2746 42.6681 63.2549C46.2706 67.7445 61.0655 71.0795 77.2187 71.6257C78.5945 71.6722 79.9797 71.5739 81.335 71.3331Z" fill="#C3C3C3" stroke="#C3C3C3" stroke-opacity="0.63" stroke-width="3"/>
<path d="M949.813 158.157C974.042 160.309 986.867 160.892 1005.16 158.157C1008.13 159.661 1021.47 136.678 1018.6 129.694C1015.73 122.71 1015.55 118.758 1005.16 120.997L994.599 130.463C997.47 124.994 997.571 93.433 992.112 82.2555C986.126 69.9993 975.509 67.2334 966.812 82.2555C958.115 97.2777 960.486 129.694 960.486 129.694L949.813 113.486C941.683 109.902 935.977 110.323 934 120.997C934 135.228 940.324 142.308 949.813 158.157Z" fill="#7DC646"/>
<path d="M1005.16 158.157C986.867 160.892 974.042 160.309 949.813 158.157C940.324 142.308 934 135.228 934 120.997C935.977 110.323 941.683 109.902 949.813 113.486L960.486 129.694C960.486 129.694 958.115 97.2777 966.812 82.2555C975.509 67.2334 986.126 69.9993 992.112 82.2555C998.098 94.5118 997.399 131.276 993.693 131.275L1005.16 120.997C1015.55 118.758 1015.73 122.71 1018.6 129.694C1021.47 136.678 1008.13 159.661 1005.16 158.157Z" stroke="#7DC646"/>
<path d="M976.405 144.594C974.826 120.89 975.229 108.249 977.746 86.604" stroke="#6DB432" stroke-linecap="round"/>
<path d="M968.788 102.417C969.169 107.68 971.219 109.609 975.509 112.695C982.689 110.423 985.814 108.182 989.74 102.417M966.812 120.997C970.529 123.725 972.422 124.732 975.509 125.741C981.473 125.071 984.324 123.503 988.554 118.625M972.346 88.5806C973.898 92.1642 974.857 93.4106 976.695 94.5104C980.709 94.4051 982.362 93.3392 984.206 89.7665M955.743 140.763L952.614 136.019M943.488 122.183L947.92 128.903M1000.41 144.321L1010.69 128.903M947.92 128.903C950.17 126.681 951.001 125.457 950.603 123.369M947.92 128.903C944.435 129.406 943.164 128.694 941.511 126.531M947.92 128.903L952.614 136.019M952.614 136.019C949.249 137.071 947.277 137.014 943.488 134.833M952.614 136.019C955.394 134.979 955.743 132.856 956.533 131.67" stroke="#6DB432" stroke-linecap="round"/>
<path d="M1012.67 135.624C1009.72 136.837 1008.44 136.567 1006.34 135.624C1004.96 134.363 1004.61 133.239 1005.16 130.089M1008.32 142.344C1005.97 143.461 1004.67 143.398 1002.39 141.554C1000.07 139.838 999.711 138.472 1000.02 135.624" stroke="#6DB432" stroke-linecap="round"/>
</g>
<defs>
<filter id="filter0_d_22_197" x="138.5" y="3821.5" width="803" height="1963.5" filterUnits="userSpaceOnUse" color-interpolation-filters="sRGB">
<feFlood flood-opacity="0" result="BackgroundImageFix"/>
<feColorMatrix in="SourceAlpha" type="matrix" values="0 0 0 0 0 0 0 0 0 0 0 0 0 0 0 0 0 0 127 0" result="hardAlpha"/>
<feOffset dy="4"/>
<feGaussianBlur stdDeviation="11.5"/>
<feComposite in2="hardAlpha" operator="out"/>
<feColorMatrix type="matrix" values="0 0 0 0 0 0 0 0 0 0 0 0 0 0 0 0 0 0 0.25 0"/>
<feBlend mode="normal" in2="BackgroundImageFix" result="effect1_dropShadow_22_197"/>
<feBlend mode="normal" in="SourceGraphic" in2="effect1_dropShadow_22_197" result="shape"/>
</filter>
<filter id="filter1_d_22_197" x="138.5" y="1901.5" width="803" height="1963.5" filterUnits="userSpaceOnUse" color-interpolation-filters="sRGB">
<feFlood flood-opacity="0" result="BackgroundImageFix"/>
<feColorMatrix in="SourceAlpha" type="matrix" values="0 0 0 0 0 0 0 0 0 0 0 0 0 0 0 0 0 0 127 0" result="hardAlpha"/>
<feOffset dy="4"/>
<feGaussianBlur stdDeviation="11.5"/>
<feComposite in2="hardAlpha" operator="out"/>
<feColorMatrix type="matrix" values="0 0 0 0 0 0 0 0 0 0 0 0 0 0 0 0 0 0 0.25 0"/>
<feBlend mode="normal" in2="BackgroundImageFix" result="effect1_dropShadow_22_197"/>
<feBlend mode="normal" in="SourceGraphic" in2="effect1_dropShadow_22_197" result="shape"/>
</filter>
<filter id="filter2_d_22_197" x="138.5" y="-18.5" width="803" height="1963.5" filterUnits="userSpaceOnUse" color-interpolation-filters="sRGB">
<feFlood flood-opacity="0" result="BackgroundImageFix"/>
<feColorMatrix in="SourceAlpha" type="matrix" values="0 0 0 0 0 0 0 0 0 0 0 0 0 0 0 0 0 0 127 0" result="hardAlpha"/>
<feOffset dy="4"/>
<feGaussianBlur stdDeviation="11.5"/>
<feComposite in2="hardAlpha" operator="out"/>
<feColorMatrix type="matrix" values="0 0 0 0 0 0 0 0 0 0 0 0 0 0 0 0 0 0 0.25 0"/>
<feBlend mode="normal" in2="BackgroundImageFix" result="effect1_dropShadow_22_197"/>
<feBlend mode="normal" in="SourceGraphic" in2="effect1_dropShadow_22_197" result="shape"/>
</filter>
<clipPath id="clip0_22_197">
<rect width="1080" height="1920" fill="white" transform="translate(0 3840)"/>
</clipPath>
<clipPath id="clip1_22_197">
<rect width="1080" height="1920" fill="white" transform="translate(0 1920)"/>
</clipPath>
<clipPath id="clip2_22_197">
<rect width="1080" height="1920" fill="white"/>
</clipPath>
</defs>
</svg>
