<svg width="1080" height="1920" viewBox="0 0 1080 1920" fill="none" xmlns="http://www.w3.org/2000/svg">
<g clip-path="url(#clip0_1_5)">
<rect width="1080" height="1920" fill="#A6DA62"/>
<g filter="url(#filter0_d_1_5)">
<path d="M538 1899.5V1899.5C538 1811 466.257 1739.26 377.757 1739.26H359C260.141 1739.26 180 1659.12 180 1560.26V1545.95C180 1439.19 266.548 1352.64 373.31 1352.64H704.542C812.49 1352.64 900 1265.13 900 1157.18V1157.18C900 1049.23 812.491 961.722 704.542 961.722H371.162C265.586 961.722 180 876.136 180 770.56V770.56C180 664.984 265.586 579.398 371.162 579.398H708.301C814.173 579.398 900 493.571 900 387.699V377C900 277.036 818.964 196 719 196H715C617.246 196 538 116.754 538 19V19" stroke="white" stroke-opacity="0.63" stroke-width="37" stroke-linecap="square" shape-rendering="crispEdges"/>
</g>
<path d="M637 385H711" stroke="#9BD552" stroke-width="256" stroke-linecap="round"/>
<path d="M674 471H435" stroke="#9BD552" stroke-width="83" stroke-linecap="round"/>
<path d="M684 299H520" stroke="#9BD552" stroke-width="83" stroke-linecap="round"/>
<path d="M441 385H609" stroke="#A6DA62" stroke-width="89" stroke-linecap="round"/>
<path d="M573 1545H499" stroke="#9BD552" stroke-width="256" stroke-linecap="round"/>
<path d="M536 1631H775" stroke="#9BD552" stroke-width="83" stroke-linecap="round"/>
<path d="M526 1459H690" stroke="#9BD552" stroke-width="83" stroke-linecap="round"/>
<path d="M769 1545H601" stroke="#A6DA62" stroke-width="89" stroke-linecap="round"/>
<path d="M244 201H328" stroke="#9BD552" stroke-width="55" stroke-linecap="round"/>
<path d="M373 765H609" stroke="#9BD552" stroke-width="235" stroke-linecap="round"/>
<path d="M862 1431H992" stroke="#9BD552" stroke-width="66" stroke-linecap="round"/>
<path d="M228 1125H532" stroke="#9BD552" stroke-width="151" stroke-linecap="round"/>
<path d="M692 1249H758" stroke="#9BD552" stroke-width="68" stroke-linecap="round"/>
<path d="M324 1859H390" stroke="#9BD552" stroke-width="68" stroke-linecap="round"/>
<path d="M848.215 561.938C860.736 542.551 873.133 541.217 883.5 541V768.993C883.5 777.136 853.542 769.413 835.695 759.527C821.985 748.708 816.559 740.798 813.206 721.529C812.232 702.161 814.614 682.248 822.512 635.449C829.744 604.953 835.695 581.325 848.215 561.938Z" fill="#F2CB78" stroke="#F2CB78" stroke-width="5" stroke-linecap="round"/>
<path d="M918.785 561.938C906.264 542.551 893.867 541.217 883.5 541V768.993C883.5 777.136 913.458 769.413 931.305 759.527C945.015 748.708 950.441 740.798 953.794 721.529C954.768 702.161 952.386 682.248 944.488 635.449C937.256 604.953 931.305 581.325 918.785 561.938Z" fill="#F2CB78" stroke="#F2CB78" stroke-width="5" stroke-linecap="round"/>
<path d="M888.153 827.155V557.285" stroke="#BD8B43" stroke-width="5" stroke-linecap="round"/>
<path d="M888.153 621.651L875.617 622.856C860.72 624.288 847.828 612.577 847.828 597.611V597.611M888.153 670.506L901.825 673.135C915.651 675.794 928.478 665.199 928.478 651.119V651.119M888.153 714.709L881.632 716.074C865.912 719.364 849.992 711.416 843.175 696.873V696.873" stroke="#BD8B43" stroke-width="5" stroke-linecap="round"/>
<path d="M980.919 676.285C975.407 667.164 969.974 664 957 664V779.387C977.312 782.146 989.978 775 994.327 769.735C998.676 764.47 1000.34 748.237 997.806 734.636C997.806 734.636 989.086 696.96 980.919 676.285Z" fill="#E0A3CF" stroke="#E0A3CF" stroke-width="5" stroke-linecap="round"/>
<path d="M931.081 676.285C936.593 667.164 942.026 664 955 664V779.387C934.688 782.146 922.022 775 917.673 769.735C913.324 764.47 911.657 748.237 914.194 734.636C914.194 734.636 922.914 696.96 931.081 676.285Z" fill="#E0A3CF" stroke="#E0A3CF" stroke-width="5" stroke-linecap="round"/>
<path d="M956 827V678" stroke="#BD8B43" stroke-width="5" stroke-linecap="round"/>
<path d="M956 720C964.823 726.217 972.5 714.5 972.5 714.5M956 751C947.799 755.447 941 755 935.5 748.5" stroke="#BD8B43" stroke-width="5" stroke-linecap="round"/>
<path d="M112.081 1214.28C117.593 1205.16 123.026 1202 136 1202V1317.39C115.688 1320.15 103.022 1313 98.6727 1307.73C94.3239 1302.47 92.6572 1286.24 95.1937 1272.64C95.1937 1272.64 103.914 1234.96 112.081 1214.28Z" fill="#F2CB78" stroke="#F2CB78" stroke-width="5" stroke-linecap="round"/>
<path d="M161.919 1214.28C156.407 1205.16 150.974 1202 138 1202V1317.39C158.312 1320.15 170.978 1313 175.327 1307.73C179.676 1302.47 181.343 1286.24 178.806 1272.64C178.806 1272.64 170.086 1234.96 161.919 1214.28Z" fill="#F2CB78" stroke="#F2CB78" stroke-width="5" stroke-linecap="round"/>
<path d="M137 1365V1216" stroke="#BD8B43" stroke-width="5" stroke-linecap="round"/>
<path d="M137 1258C128.177 1264.22 120.5 1252.5 120.5 1252.5M137 1289C145.201 1293.45 152 1293 157.5 1286.5" stroke="#BD8B43" stroke-width="5" stroke-linecap="round"/>
<path d="M337.215 49.9382C349.736 30.551 362.133 29.2173 372.5 29V256.993C372.5 265.136 342.542 257.413 324.695 247.527C310.985 236.708 305.559 228.798 302.206 209.529C301.232 190.161 303.614 170.248 311.512 123.45C318.744 92.9533 324.695 69.3253 337.215 49.9382Z" fill="#F49B7E" stroke="#F49B7E" stroke-width="5" stroke-linecap="round"/>
<path d="M407.785 49.9381C395.264 30.551 382.867 29.2172 372.5 29V256.993C372.5 265.136 402.458 257.413 420.305 247.527C434.015 236.708 439.441 228.798 442.794 209.529C443.768 190.161 441.386 170.248 433.488 123.449C426.256 92.9533 420.305 69.3253 407.785 49.9381Z" fill="#F49B7E" stroke="#F49B7E" stroke-width="5" stroke-linecap="round"/>
<path d="M372.5 315.155V45.2852" stroke="#BD8B43" stroke-width="5" stroke-linecap="round"/>
<path d="M372.5 109.651L385.036 110.856C399.933 112.288 412.825 100.577 412.825 85.6106V85.6106M372.5 158.506L358.828 161.135C345.001 163.794 332.175 153.199 332.175 139.119V139.119M372.5 202.709L379.021 204.074C394.741 207.364 410.661 199.416 417.478 184.873V184.873" stroke="#BD8B43" stroke-width="5" stroke-linecap="round"/>
<path d="M47.1396 274.353C55.7221 261.063 64.2204 260.149 71.3267 260V416.286C71.3267 421.867 50.7912 416.574 38.557 409.797C29.1589 402.381 25.4395 396.958 23.1411 383.75C22.4735 370.473 24.1065 356.823 29.5201 324.744C34.4779 303.839 38.557 287.642 47.1396 274.353Z" fill="#E0A3CF" stroke="#E0A3CF" stroke-width="5" stroke-linecap="round"/>
<path d="M95.5138 274.353C86.9312 261.063 78.433 260.149 71.3267 260V416.286C71.3267 421.867 91.8622 416.574 104.096 409.797C113.494 402.381 117.214 396.958 119.512 383.75C120.18 370.473 118.547 356.823 113.133 324.744C108.175 303.839 104.096 287.642 95.5138 274.353Z" fill="#E0A3CF" stroke="#E0A3CF" stroke-width="5" stroke-linecap="round"/>
<path d="M71.3267 456.155V271.163" stroke="#BD8B43" stroke-width="5" stroke-linecap="round"/>
<path d="M71.3267 315.285L79.9199 316.111C90.1318 317.093 98.969 309.065 98.969 298.806V298.806M71.3267 348.775L61.9549 350.577C52.4769 352.4 43.6843 345.137 43.6843 335.485V335.485M71.3267 379.075L75.7964 380.01C86.5726 382.266 97.4857 376.817 102.159 366.848V366.848" stroke="#BD8B43" stroke-width="5" stroke-linecap="round"/>
<path d="M1021.92 1557.28C1016.41 1548.16 1010.97 1545 998 1545V1660.39C1018.31 1663.15 1030.98 1656 1035.33 1650.73C1039.68 1645.47 1041.34 1629.24 1038.81 1615.64C1038.81 1615.64 1030.09 1577.96 1021.92 1557.28Z" fill="#F49B7E" stroke="#F49B7E" stroke-width="5" stroke-linecap="round"/>
<path d="M972.081 1557.28C977.593 1548.16 983.026 1545 996 1545V1660.39C975.688 1663.15 963.022 1656 958.673 1650.73C954.324 1645.47 952.657 1629.24 955.194 1615.64C955.194 1615.64 963.914 1577.96 972.081 1557.28Z" fill="#F49B7E" stroke="#F49B7E" stroke-width="5" stroke-linecap="round"/>
<path d="M997 1708V1559" stroke="#BD8B43" stroke-width="5" stroke-linecap="round"/>
<path d="M997 1601C1005.82 1607.22 1013.5 1595.5 1013.5 1595.5M997 1632C988.799 1636.45 982 1636 976.5 1629.5" stroke="#BD8B43" stroke-width="5" stroke-linecap="round"/>
<path d="M597.094 1609.6C609.019 1627.86 618.898 1634.85 641.756 1641.98H704.843C719.349 1636.08 741.672 1632.25 750.622 1617.42C754.847 1610.98 755.396 1606.76 750.622 1597.32C737.311 1594.18 730.528 1595.83 719.358 1603.46C724.775 1597.72 727.358 1593.54 728.849 1579.45C722.175 1571.11 717.263 1568.44 704.843 1569.96C690.47 1578.06 686.903 1584.74 681.953 1597.32C684.947 1582.26 686.081 1578.02 679.162 1558.24C666.044 1547.2 658.946 1546.76 647.339 1559.91C641.481 1577.58 638.952 1581.42 647.339 1600.67L621.1 1585.04C613.284 1581.13 584.642 1582.57 597.094 1609.6Z" fill="#53AF7E" stroke="#53AF7E" stroke-width="2" stroke-linecap="round"/>
<path d="M665.763 1612.95C659.933 1592.41 659.252 1582.3 661.296 1566.05" stroke="#429267" stroke-linecap="round"/>
<path d="M695.352 1604.02C702.647 1598.28 706.205 1593.56 711.542 1582.24M704.284 1624.12C718.951 1622.67 726.434 1619.56 738.898 1611.27M637.29 1624.12C619.985 1618.55 612.742 1613.21 603.793 1600.11" stroke="#429267" stroke-linecap="round"/>
<path d="M610.038 1641.25C623.887 1642.48 631.218 1642.81 641.673 1641.25C643.373 1642.11 650.994 1628.97 649.355 1624.98C647.716 1620.98 647.613 1618.73 641.673 1620.01L635.638 1625.42C637.279 1622.29 637.336 1604.25 634.216 1597.86C630.794 1590.86 624.726 1589.28 619.755 1597.86C614.783 1606.45 616.139 1624.98 616.139 1624.98L610.038 1615.71C605.392 1613.66 602.13 1613.91 601 1620.01C601 1628.14 604.615 1632.19 610.038 1641.25Z" fill="#7DC646"/>
<path d="M641.673 1641.25C631.218 1642.81 623.887 1642.48 610.038 1641.25C604.615 1632.19 601 1628.14 601 1620.01C602.13 1613.91 605.392 1613.66 610.038 1615.71L616.139 1624.98C616.139 1624.98 614.783 1606.45 619.755 1597.86C624.726 1589.28 630.794 1590.86 634.216 1597.86C637.638 1604.87 637.238 1625.88 635.12 1625.88L641.673 1620.01C647.613 1618.73 647.716 1620.98 649.355 1624.98C650.994 1628.97 643.373 1642.11 641.673 1641.25Z" stroke="#7DC646"/>
<path d="M625.238 1633.49C624.335 1619.94 624.566 1612.72 626.004 1600.35" stroke="#6DB432" stroke-linecap="round"/>
<path d="M620.884 1609.39C621.102 1612.39 622.274 1613.5 624.726 1615.26C628.83 1613.96 630.616 1612.68 632.86 1609.39M619.755 1620.01C621.88 1621.57 622.961 1622.14 624.726 1622.72C628.135 1622.33 629.764 1621.44 632.182 1618.65M622.918 1601.48C623.805 1603.53 624.353 1604.24 625.404 1604.87C627.698 1604.81 628.643 1604.2 629.697 1602.16M613.428 1631.3L611.639 1628.59M606.423 1620.68L608.957 1624.53M638.961 1633.34L644.836 1624.53M608.957 1624.53C610.243 1623.26 610.718 1622.56 610.49 1621.36M608.957 1624.53C606.964 1624.81 606.238 1624.41 605.293 1623.17M608.957 1624.53L611.639 1628.59M611.639 1628.59C609.716 1629.19 608.589 1629.16 606.423 1627.91M611.639 1628.59C613.228 1628 613.428 1626.78 613.88 1626.11" stroke="#6DB432" stroke-linecap="round"/>
<path d="M645.966 1628.37C644.282 1629.06 643.551 1628.91 642.35 1628.37C641.558 1627.65 641.358 1627 641.673 1625.2M643.48 1632.21C642.139 1632.85 641.395 1632.81 640.091 1631.76C638.766 1630.78 638.56 1629.99 638.735 1628.37" stroke="#6DB432" stroke-linecap="round"/>
<path d="M176.561 539.661C155.003 541.576 143.591 542.094 127.317 539.661C124.67 541 112.806 520.549 115.357 514.335C117.909 508.121 118.07 504.605 127.317 506.597L136.711 515.019C134.157 510.153 134.067 482.071 138.924 472.125C144.251 461.22 153.698 458.759 161.436 472.125C169.175 485.492 167.064 514.335 167.064 514.335L176.561 499.913C183.795 496.725 188.873 497.099 190.631 506.597C190.631 519.259 185.004 525.559 176.561 539.661Z" fill="#7DC646"/>
<path d="M127.317 539.661C143.591 542.094 155.003 541.576 176.561 539.661C185.004 525.559 190.631 519.259 190.631 506.597C188.873 497.099 183.795 496.725 176.561 499.913L167.064 514.335C167.064 514.335 169.175 485.492 161.436 472.125C153.698 458.759 144.251 461.22 138.924 472.125C133.598 483.031 134.22 515.743 137.517 515.742L127.317 506.597C118.07 504.605 117.909 508.121 115.357 514.335C112.806 520.549 124.67 541 127.317 539.661Z" stroke="#7DC646"/>
<path d="M152.9 527.593C154.306 506.501 153.946 495.253 151.707 475.994" stroke="#6DB432" stroke-linecap="round"/>
<path d="M159.678 490.064C159.339 494.748 157.515 496.464 153.698 499.21C147.309 497.188 144.529 495.194 141.035 490.064M161.436 506.597C158.128 509.024 156.444 509.92 153.698 510.818C148.391 510.221 145.854 508.826 142.09 504.486M156.512 477.753C155.131 480.942 154.278 482.051 152.643 483.029C149.07 482.936 147.6 481.987 145.959 478.808M171.285 524.184L174.069 519.963M182.189 507.652L178.245 513.631M131.538 527.35L122.392 513.631M178.245 513.631C176.244 511.654 175.504 510.565 175.858 508.707M178.245 513.631C181.347 514.078 182.478 513.445 183.948 511.521M178.245 513.631L174.069 519.963M174.069 519.963C177.064 520.899 178.818 520.848 182.189 518.908M174.069 519.963C171.596 519.038 171.285 517.149 170.582 516.094" stroke="#6DB432" stroke-linecap="round"/>
<path d="M120.633 519.611C123.255 520.69 124.393 520.45 126.261 519.611C127.496 518.489 127.807 517.489 127.317 514.687M124.503 525.591C126.591 526.585 127.749 526.528 129.779 524.887C131.841 523.361 132.163 522.145 131.889 519.611" stroke="#6DB432" stroke-linecap="round"/>
<path d="M416.055 304.571C411.339 311.793 407.432 314.558 398.392 317.378H373.441C367.704 315.045 358.876 313.53 355.336 307.663C353.665 305.115 353.448 303.447 355.336 299.714C360.6 298.474 363.283 299.126 367.701 302.143C365.558 299.873 364.537 298.219 363.947 292.648C366.586 289.348 368.529 288.294 373.441 288.895C379.126 292.098 380.536 294.739 382.494 299.714C381.31 293.757 380.862 292.081 383.598 284.258C388.786 279.894 391.593 279.72 396.184 284.92C398.501 291.906 399.501 293.427 396.184 301.039L406.561 294.856C409.652 293.311 420.98 293.882 416.055 304.571Z" fill="#53AF7E" stroke="#53AF7E" stroke-width="2" stroke-linecap="round"/>
<path d="M388.897 305.896C391.203 297.771 391.472 293.774 390.664 287.349" stroke="#429267" stroke-linecap="round"/>
<path d="M377.195 302.363C374.31 300.096 372.902 298.226 370.792 293.752M373.662 310.312C367.861 309.742 364.902 308.512 359.973 305.234M400.158 310.312C407.002 308.112 409.866 305.999 413.406 300.818" stroke="#429267" stroke-linecap="round"/>
<path d="M877.214 804.703C879.262 821.201 888.477 830 888.477 830H922.266L941.72 804.703C950.599 791.891 952.221 784.192 941.72 768.406C930.35 763.277 927.452 776.155 922.304 799.031L922.266 799.203C926.401 764.78 925.341 752.645 913.05 753.008C899.194 768.091 896.915 778.513 898.716 799.203C898.716 799.203 894.113 788.696 888.477 788.204C888.477 788.204 875.166 788.204 877.214 804.703Z" fill="#53AF7E" stroke="#53AF7E" stroke-width="2" stroke-linecap="round"/>
<path d="M243.408 1079.39C239.729 1085.02 236.681 1087.18 229.629 1089.38H210.166C205.69 1087.56 198.803 1086.38 196.042 1081.8C194.739 1079.81 194.569 1078.51 196.042 1075.6C200.149 1074.63 202.241 1075.14 205.688 1077.49C204.017 1075.72 203.22 1074.43 202.76 1070.09C204.818 1067.51 206.334 1066.69 210.166 1067.16C214.6 1069.66 215.701 1071.72 217.228 1075.6C216.304 1070.95 215.954 1069.64 218.089 1063.54C222.136 1060.14 224.326 1060 227.907 1064.06C229.714 1069.51 230.494 1070.69 227.907 1076.63L236.002 1071.81C238.413 1070.6 247.25 1071.05 243.408 1079.39Z" fill="#53AF7E" stroke="#53AF7E" stroke-width="2" stroke-linecap="round"/>
<path d="M222.223 1080.42C224.021 1074.08 224.231 1070.97 223.601 1065.95" stroke="#429267" stroke-linecap="round"/>
<path d="M213.094 1077.67C210.843 1075.9 209.746 1074.44 208.099 1070.95M210.338 1083.87C205.813 1083.42 203.505 1082.46 199.659 1079.9M231.007 1083.87C236.346 1082.15 238.581 1080.5 241.342 1076.46" stroke="#429267" stroke-linecap="round"/>
<path d="M298.354 1098.46L276.232 1104.61C271.972 1105.79 268.524 1108.92 266.93 1113.04C264.619 1119.02 266.665 1125.8 271.895 1129.51L286.861 1140.1C293.202 1144.59 300.778 1147 308.546 1147H332.451C336.102 1147 339.726 1146.37 343.164 1145.15L354.497 1141.1C364.379 1137.58 369.685 1126.85 366.489 1116.86C364.429 1110.42 359.169 1105.51 352.6 1103.89L328.586 1098C318.636 1095.56 308.225 1095.71 298.354 1098.46Z" fill="#9A9A9A" stroke="#9A9A9A" stroke-opacity="0.63" stroke-width="3" stroke-linecap="square"/>
<path d="M298.354 1093.19L276.232 1099.34C271.972 1100.52 268.524 1103.65 266.93 1107.77C264.619 1113.75 266.665 1120.53 271.895 1124.23L286.861 1134.83C293.202 1139.32 300.778 1141.73 308.546 1141.73H332.451C336.102 1141.73 339.726 1141.1 343.164 1139.87L354.497 1135.83C364.379 1132.31 369.685 1121.58 366.489 1111.59C364.429 1105.14 359.169 1100.23 352.6 1098.62L328.586 1092.73C318.636 1090.28 308.225 1090.44 298.354 1093.19Z" fill="#C3C3C3" stroke="#C3C3C3" stroke-opacity="0.63" stroke-width="3" stroke-linecap="square"/>
<path d="M86.335 1758.33C92.0206 1757.32 96.1285 1756.18 99.3219 1754.72C107.123 1751.16 104.316 1738.66 97.0872 1734.04C93.1428 1731.52 91.1829 1732.29 86.5344 1732.83L70.1596 1734.74C67.0903 1735.09 64.1266 1736.07 61.3983 1737.52C53.3384 1741.8 44.4742 1746.27 47.6681 1750.25C51.2706 1754.74 66.0655 1758.08 82.2187 1758.63C83.5945 1758.67 84.9797 1758.57 86.335 1758.33Z" fill="#9A9A9A" stroke="#9A9A9A" stroke-opacity="0.63" stroke-width="3"/>
<path d="M86.335 1754.33C92.0206 1753.32 96.1285 1752.18 99.3219 1750.72C107.123 1747.16 104.316 1734.66 97.0872 1730.04C93.1428 1727.52 91.1829 1728.29 86.5344 1728.83L70.1596 1730.74C67.0903 1731.09 64.1266 1732.07 61.3983 1733.52C53.3384 1737.8 44.4742 1742.27 47.6681 1746.25C51.2706 1750.74 66.0655 1754.08 82.2187 1754.63C83.5945 1754.67 84.9797 1754.57 86.335 1754.33Z" fill="#C3C3C3" stroke="#C3C3C3" stroke-opacity="0.63" stroke-width="3"/>
<path d="M760.669 370.36L775.544 374.495C778.408 375.291 780.727 377.394 781.799 380.167C783.353 384.186 781.977 388.747 778.46 391.237L768.397 398.361C764.134 401.379 759.039 403 753.816 403H737.742C735.287 403 732.85 402.578 730.538 401.754L722.918 399.036C716.273 396.666 712.705 389.453 714.854 382.733C716.24 378.401 719.776 375.1 724.193 374.015L740.341 370.051C747.031 368.408 754.032 368.515 760.669 370.36Z" fill="#9A9A9A" stroke="#9A9A9A" stroke-opacity="0.63" stroke-width="3" stroke-linecap="square"/>
<path d="M760.669 366.814L775.544 370.95C778.408 371.746 780.727 373.849 781.799 376.621C783.353 380.64 781.977 385.201 778.46 387.691L768.397 394.816C764.134 397.834 759.039 399.455 753.816 399.455H737.742C735.287 399.455 732.85 399.033 730.538 398.208L722.918 395.49C716.273 393.12 712.705 385.907 714.854 379.188C716.24 374.855 719.776 371.554 724.193 370.47L740.341 366.505C747.031 364.863 754.032 364.969 760.669 366.814Z" fill="#C3C3C3" stroke="#C3C3C3" stroke-opacity="0.63" stroke-width="3" stroke-linecap="square"/>
<path d="M81.335 75.3329C87.0206 74.3227 91.1285 73.1803 94.3219 71.7216C102.123 68.1581 99.316 55.6577 92.0872 51.0421C88.1428 48.5236 86.1829 49.2902 81.5344 49.8309L65.1596 51.7355C62.0903 52.0925 59.1266 53.0675 56.3983 54.5182C48.3384 58.8041 39.4742 63.2744 42.6681 67.2547C46.2706 71.7443 61.0655 75.0793 77.2187 75.6255C78.5945 75.6721 79.9797 75.5737 81.335 75.3329Z" fill="#9A9A9A" stroke="#9A9A9A" stroke-opacity="0.63" stroke-width="3"/>
<path d="M81.335 71.3329C87.0206 70.3227 91.1285 69.1803 94.3219 67.7216C102.123 64.1581 99.316 51.6577 92.0872 47.0421C88.1428 44.5236 86.1829 45.2902 81.5344 45.8309L65.1596 47.7355C62.0903 48.0925 59.1266 49.0675 56.3983 50.5182C48.3384 54.8041 39.4742 59.2744 42.6681 63.2547C46.2706 67.7443 61.0655 71.0793 77.2187 71.6255C78.5945 71.6721 79.9797 71.5737 81.335 71.3329Z" fill="#C3C3C3" stroke="#C3C3C3" stroke-opacity="0.63" stroke-width="3"/>
<path d="M949.813 158.157C974.042 160.309 986.867 160.892 1005.16 158.157C1008.13 159.661 1021.47 136.678 1018.6 129.694C1015.73 122.71 1015.55 118.758 1005.16 120.997L994.599 130.463C997.47 124.994 997.571 93.433 992.112 82.2555C986.126 69.9993 975.509 67.2334 966.812 82.2555C958.115 97.2777 960.486 129.694 960.486 129.694L949.813 113.486C941.683 109.902 935.977 110.323 934 120.997C934 135.228 940.324 142.308 949.813 158.157Z" fill="#7DC646"/>
<path d="M1005.16 158.157C986.867 160.892 974.042 160.309 949.813 158.157C940.324 142.308 934 135.228 934 120.997C935.977 110.323 941.683 109.902 949.813 113.486L960.486 129.694C960.486 129.694 958.115 97.2777 966.812 82.2555C975.509 67.2334 986.126 69.9993 992.112 82.2555C998.098 94.5118 997.399 131.276 993.693 131.275L1005.16 120.997C1015.55 118.758 1015.73 122.71 1018.6 129.694C1021.47 136.678 1008.13 159.661 1005.16 158.157Z" stroke="#7DC646"/>
<path d="M976.405 144.594C974.826 120.89 975.229 108.249 977.746 86.6041" stroke="#6DB432" stroke-linecap="round"/>
<path d="M968.788 102.417C969.169 107.681 971.219 109.609 975.509 112.695C982.689 110.423 985.814 108.182 989.74 102.417M966.812 120.997C970.529 123.725 972.422 124.732 975.509 125.741C981.473 125.071 984.324 123.503 988.554 118.625M972.346 88.5807C973.898 92.1643 974.857 93.4107 976.695 94.5105C980.709 94.4052 982.362 93.3393 984.206 89.7666M955.743 140.763L952.614 136.019M943.488 122.183L947.92 128.903M1000.41 144.321L1010.69 128.903M947.92 128.903C950.17 126.681 951.001 125.457 950.603 123.369M947.92 128.903C944.435 129.406 943.164 128.694 941.511 126.531M947.92 128.903L952.614 136.019M952.614 136.019C949.249 137.071 947.277 137.014 943.488 134.833M952.614 136.019C955.394 134.979 955.743 132.857 956.533 131.671" stroke="#6DB432" stroke-linecap="round"/>
<path d="M1012.67 135.624C1009.72 136.837 1008.44 136.567 1006.34 135.624C1004.96 134.363 1004.61 133.239 1005.16 130.089M1008.32 142.344C1005.97 143.461 1004.67 143.398 1002.39 141.554C1000.07 139.838 999.711 138.472 1000.02 135.624" stroke="#6DB432" stroke-linecap="round"/>
</g>
<defs>
<filter id="filter0_d_1_5" x="138.5" y="-18.5" width="803" height="1963.5" filterUnits="userSpaceOnUse" color-interpolation-filters="sRGB">
<feFlood flood-opacity="0" result="BackgroundImageFix"/>
<feColorMatrix in="SourceAlpha" type="matrix" values="0 0 0 0 0 0 0 0 0 0 0 0 0 0 0 0 0 0 127 0" result="hardAlpha"/>
<feOffset dy="4"/>
<feGaussianBlur stdDeviation="11.5"/>
<feComposite in2="hardAlpha" operator="out"/>
<feColorMatrix type="matrix" values="0 0 0 0 0 0 0 0 0 0 0 0 0 0 0 0 0 0 0.25 0"/>
<feBlend mode="normal" in2="BackgroundImageFix" result="effect1_dropShadow_1_5"/>
<feBlend mode="normal" in="SourceGraphic" in2="effect1_dropShadow_1_5" result="shape"/>
</filter>
<clipPath id="clip0_1_5">
<rect width="1080" height="1920" fill="white"/>
</clipPath>
</defs>
</svg>
