<svg width="121" height="121" viewBox="0 0 121 121" fill="none" xmlns="http://www.w3.org/2000/svg">
<mask id="mask0_32_13" style="mask-type:alpha" maskUnits="userSpaceOnUse" x="0" y="0" width="121" height="121">
<rect width="121" height="121" fill="#D9D9D9"/>
</mask>
<g mask="url(#mask0_32_13)">
<path d="M99.8251 113.942L84.5741 98.6909C82.4734 100.035 80.2467 101.191 77.8939 102.157C75.5411 103.123 73.1043 103.901 70.5835 104.489V94.1534C71.7599 93.7333 72.9152 93.3131 74.0496 92.893C75.184 92.4728 76.2554 91.9687 77.2637 91.3805L60.5001 74.6169V100.834L35.2918 75.6253H15.1251V45.3753H31.2585L7.05847 21.1753L14.1168 14.1169L106.883 106.884L99.8251 113.942ZM98.8168 84.7003L91.5064 77.3899C92.9349 74.785 94.0062 72.0541 94.7205 69.1972C95.4347 66.3402 95.7918 63.3992 95.7918 60.3742C95.7918 52.4756 93.4811 45.4173 88.8595 39.1992C84.238 32.9812 78.146 28.7798 70.5835 26.5951V16.2597C81.0029 18.6124 89.4897 23.8852 96.0439 32.0779C102.598 40.2706 105.875 49.7027 105.875 60.3742C105.875 64.8277 105.266 69.1131 104.048 73.2305C102.829 77.3479 101.086 81.1711 98.8168 84.7003ZM81.9272 67.8107L70.5835 56.4669V40.0815C74.5328 41.9301 77.6208 44.7031 79.8475 48.4003C82.0743 52.0975 83.1876 56.1308 83.1876 60.5003C83.1876 61.7607 83.0826 63.0001 82.8725 64.2185C82.6625 65.4369 82.3474 66.6343 81.9272 67.8107ZM60.5001 46.3836L47.3918 33.2753L60.5001 20.1669V46.3836ZM50.4168 76.3815V64.5336L41.3418 55.4586H25.2085V65.5419H39.5772L50.4168 76.3815Z" fill="white"/>
</g>
</svg>
