<svg width="121" height="121" viewBox="0 0 121 121" fill="none" xmlns="http://www.w3.org/2000/svg">
<mask id="mask0_32_7" style="mask-type:alpha" maskUnits="userSpaceOnUse" x="0" y="0" width="121" height="121">
<rect width="121" height="121" fill="#D9D9D9"/>
</mask>
<g mask="url(#mask0_32_7)">
<path d="M70.5833 104.488V94.153C78.1458 91.9683 84.2378 87.7669 88.8594 81.5489C93.4809 75.3308 95.7917 68.2725 95.7917 60.3739C95.7917 52.4753 93.4809 45.4169 88.8594 39.1989C84.2378 32.9808 78.1458 28.7794 70.5833 26.5947V16.2593C81.0028 18.6121 89.4896 23.8848 96.0438 32.0775C102.598 40.2702 105.875 49.7023 105.875 60.3739C105.875 71.0454 102.598 80.4775 96.0438 88.6702C89.4896 96.8629 81.0028 102.136 70.5833 104.488ZM15.125 75.6249V45.3749H35.2917L60.5 20.1666V100.833L35.2917 75.6249H15.125ZM70.5833 80.6666V40.0812C74.5326 41.9298 77.6207 44.7027 79.8474 48.3999C82.0741 52.0971 83.1875 56.1305 83.1875 60.4999C83.1875 64.7853 82.0741 68.7556 79.8474 72.4108C77.6207 76.0661 74.5326 78.818 70.5833 80.6666ZM50.4167 44.6187L39.5771 55.4582H25.2083V65.5416H39.5771L50.4167 76.3812V44.6187Z" fill="white"/>
</g>
</svg>
