<?xml version="1.0" ?>
<!-- Uploaded to: SVG Repo, www.svgrepo.com, Generator: SVG Repo Mixer Tools -->
<svg width="800px" height="800px" viewBox="0 0 128 128" version="1.1" xml:space="preserve" xmlns="http://www.w3.org/2000/svg" xmlns:xlink="http://www.w3.org/1999/xlink">
<style type="text/css">
	.st0{fill:#69A401;}
	.st1{fill:#EFE691;}
	.st2{fill:#B20000;}
	.st3{fill:#DF1801;}
	.st4{fill:#F40603;}
	.st5{fill:#FFEEEE;}
	.st6{fill:#847B3C;}
	.st7{fill:#CEB600;}
	.st8{fill:#F8CD02;}
	.st9{fill:#F7C800;}
	.st10{fill:#F6E8B9;}
	.st11{fill:#F6E9CA;}
	.st12{fill:#CF8A11;}
	.st13{fill:#286F0D;}
	.st14{fill:#63271D;}
	.st15{fill:#EB8102;}
	.st16{fill:#E37303;}
	.st17{fill:#D97102;}
	.st18{fill:#BF6302;}
	.st19{fill:#EA9735;}
	.st20{fill:#3E1A01;}
	.st21{fill:#C96A0A;}
	.st22{fill:#CE2335;}
	.st23{fill:#C0242D;}
	.st24{fill:#BA1A23;}
	.st25{fill:#F9DCC7;}
	.st26{fill:#DBE2CE;}
	.st27{fill:#7D4B12;}
	.st28{fill:#75480C;}
	.st29{fill:#66410C;}
	.st30{fill:#88550D;}
	.st31{fill:#FFFEE9;}
	.st32{fill:#9B9F1A;}
	.st33{fill:#F6E177;}
	.st34{fill:#443A00;}
	.st35{fill:#305209;}
	.st36{fill:#7F7C04;}
	.st37{fill:#BAB424;}
	.st38{fill:#F7CF43;}
	.st39{fill:#DE940E;}
	.st40{fill:#5F570A;}
	.st41{fill:#175424;}
	.st42{fill:#215B25;}
	.st43{fill:#1B5020;}
	.st44{fill:#C0F9C0;}
	.st45{fill:#F3DA78;}
	.st46{fill:#BC441C;}
	.st47{fill:#148E2E;}
	.st48{fill:#283767;}
	.st49{fill:#425285;}
	.st50{fill:#CFDFFF;}
	.st51{fill:#1F2C55;}
	.st52{fill:#776220;}
	.st53{fill:#90236B;}
	.st54{fill:#5D1A47;}
	.st55{fill:#99499A;}
	.st56{fill:#FCCAFA;}
	.st57{fill:#917C31;}
	.st58{fill:#F4C435;}
	.st59{fill:#F1BC02;}
	.st60{fill:#F0B102;}
	.st61{fill:#F1F7BA;}
	.st62{fill:#E3DCB9;}
	.st63{fill:#BD6800;}
	.st64{fill:#E19704;}
	.st65{fill:#B2CA2B;}
	.st66{fill:#AFC20F;}
	.st67{fill:#B9CB00;}
	.st68{fill:#E5F392;}
	.st69{fill:#F78202;}
	.st70{fill:#F79613;}
	.st71{fill:#331F07;}
	.st72{fill:#402B16;}
	.st73{fill:#669404;}
	.st74{fill:#F58E13;}
	.st75{fill:#D87117;}
	.st76{fill:#216604;}
	.st77{fill:#286D08;}
	.st78{fill:#C8C625;}
	.st79{fill:#2C441F;}
	.st80{fill:#F1E6BF;}
	.st81{fill:#F2BE2E;}
	.st82{fill:#BF8F33;}
	.st83{fill:#568804;}
	.st84{fill:#669614;}
	.st85{fill:#688E0C;}
	.st86{fill:#4C7005;}
	.st87{fill:#A0CA49;}
	.st88{fill:#99BD70;}
	.st89{fill:#78AA25;}
	.st90{fill:#4B7C23;}
	.st91{fill:#EADBC8;}
	.st92{fill:#F0D5B0;}
	.st93{fill:#DF2B2B;}
	.st94{fill:#D1262C;}
	.st95{fill:#B7252C;}
	.st96{fill:#46670C;}
	.st97{fill:#F49D5B;}
	.st98{fill:#F57A55;}
	.st99{fill:#F1C3A7;}
	.st100{fill:#CC0917;}
	.st101{fill:#DC1035;}
	.st102{fill:#9BAC0F;}
	.st103{fill:#667A1D;}
	.st104{fill:#7A9D18;}
	.st105{fill:#F6F7E6;}
	.st106{fill:#F0194D;}
	.st107{fill:#362420;}
	.st108{fill:#530618;}
	.st109{fill:#44041A;}
	.st110{fill:#490419;}
	.st111{fill:#F8A459;}
	.st112{fill:#871B22;}
	.st113{fill:#600613;}
	.st114{fill:#F8C790;}
	.st115{fill:#447832;}
	.st116{fill:#7C473D;}
	.st117{fill:#441432;}
	.st118{fill:#51163F;}
	.st119{fill:#5B1A41;}
	.st120{fill:#FCEBF9;}
	.st121{fill:#ECE5CE;}
	.st122{fill:#BC3E2C;}
	.st123{fill:#A60F26;}
	.st124{fill:#C61632;}
	.st125{fill:#BD1331;}
	.st126{fill:#F8B772;}
	.st127{fill:#F7DDAC;}
	.st128{fill:#850E11;}
	.st129{fill:#191200;}
	.st130{fill:#553D2D;}
	.st131{fill:#F9E2D2;}
	.st132{fill:#CA8937;}
	.st133{fill:#462D16;}
	.st134{fill:#6D8916;}
	.st135{fill:#96B54E;}
	.st136{fill:#E3E2DE;}
	.st137{fill:#261811;}
	.st138{fill:#525C11;}
	.st139{fill:#14581E;}
	.st140{fill:#3D7712;}
	.st141{fill:#9BC148;}
	.st142{fill:#E22434;}
	.st143{fill:#C6DD9E;}
	.st144{fill:#F89A07;}
	.st145{fill:#F7A410;}
	.st146{fill:#F8AB19;}
	.st147{fill:#F7B81C;}
	.st148{fill:#E5870A;}
	.st149{fill:#97A304;}
	.st150{fill:#A88C5C;}
	.st151{fill:#ADC21E;}
	.st152{fill:#A3BA0B;}
	.st153{fill:#8D9E08;}
	.st154{fill:#E0DAB9;}
	.st155{fill:#684219;}
	.st156{fill:#777F05;}
	.st157{fill:#F2E9C4;}
	.st158{fill:#CBB465;}
	.st159{fill:#FFF5CA;}
	.st160{fill:#E52828;}
	.st161{fill:#F87302;}
	.st162{fill:#FF7B22;}
	.st163{fill:#FC7F10;}
	.st164{fill:#F8A200;}
	.st165{fill:#F8DC91;}
	.st166{fill:#FFFFFF;}
	.st167{fill:#F5D7D5;}
	.st168{fill:#EDA07A;}
	.st169{fill:#FCBEBE;}
	.st170{fill:#EAD991;}
	.st171{fill:#582612;}
</style>
<g id="_x33_0_Mulberry"/>
<g id="_x32_9_Star_Fruit"/>
<g id="_x32_8_Apricot"/>
<g id="_x32_7_Litchi"/>
<g id="_x32_6_Kiwi"/>
<g id="_x32_5_Jackfruit"/>
<g id="_x32_4_Avacado">
<g id="XMLID_1_">
<g id="XMLID_1248_">
<g id="XMLID_1245_">
<path class="st35" d="M30.954,8.963c-2.513,3.945-2.822,8.556-1.275,12.568      c4.483-0.595,8.654-3.018,11.167-6.963C43.359,10.623,43.668,6.012,42.121,2C37.638,2.595,33.467,5.018,30.954,8.963z" id="XMLID_1247_"/>
<path class="st14" d="M29.901,28.449c-0.04,0-0.079-0.001-0.119-0.004c-1.103-0.064-1.944-1.011-1.879-2.113l0.113-1.931      c-0.019-3.487-1.741-6.7-4.616-8.603c-0.921-0.609-1.174-1.851-0.564-2.771c0.608-0.921,1.85-1.174,2.771-0.564      c4.014,2.655,6.409,7.139,6.409,11.995l-0.004,0.117l-0.117,1.991C31.833,27.629,30.952,28.449,29.901,28.449z"/>
</g>
<g id="XMLID_1216_">
<path class="st41" d="M48.419,62.834c-0.833-1.091-1.619-2.342-2.353-3.685      c-3.489-6.378-5.179-13.586-5.184-20.858l-0.001-0.925c-0.048-6.044-4.957-10.917-10.996-10.917h0      c-6.073,0-10.997,4.927-10.997,11.005l0,0.794c0,8.699-3.281,16.985-8.841,23.672c-7.771,9.347-8.045,22.086-8.045,22.086      c-0.092,14.545,6.797,25.108,13.583,31.975c7.166,7.251,18.862,7.288,26.13,0.14c6.978-6.863,14.113-17.471,14.02-32.115      C55.735,84.006,55.478,72.075,48.419,62.834z" id="XMLID_1218_"/>
<path class="st42" d="M29.018,115.981c-6.786-6.867-13.675-17.43-13.583-31.975c0,0,0.274-12.739,8.045-22.086      c5.56-6.687,8.841-14.973,8.841-23.672v-0.794c0-3.544,1.681-6.688,4.281-8.701c-1.86-1.44-4.186-2.304-6.717-2.304      c-6.073,0-10.997,4.927-10.997,11.005v0.794c0,8.699-3.281,16.985-8.841,23.672c-7.771,9.347-8.045,22.086-8.045,22.086      c-0.092,14.545,6.797,25.108,13.583,31.975c5.337,5.4,13.184,6.793,19.845,4.203C33.09,119.274,30.896,117.882,29.018,115.981z" id="XMLID_834_"/>
<path class="st43" d="M23.851,115.981c-6.786-6.867-13.675-17.43-13.583-31.975c0,0,0.274-12.739,8.045-22.086      c5.56-6.687,8.841-14.973,8.841-23.672v-0.794c0-4.614,2.841-8.559,6.865-10.195c-1.277-0.519-2.672-0.811-4.134-0.811      c-6.073,0-10.997,4.927-10.997,11.005v0.794c0,8.699-3.281,16.985-8.841,23.672c-7.771,9.347-8.045,22.086-8.045,22.086      c-0.092,14.545,6.797,25.108,13.583,31.975c4.656,4.711,11.22,6.357,17.244,4.985C29.532,120.213,26.403,118.563,23.851,115.981      z" id="XMLID_1190_"/>
<path class="st44" d="M16.12,103.03c-0.53,0-1.04-0.211-1.41-0.591c-0.101-0.09-0.18-0.189-0.26-0.3      c-0.07-0.109-0.131-0.229-0.181-0.35c-0.05-0.11-0.09-0.24-0.109-0.37c-0.03-0.13-0.04-0.26-0.04-0.39      c0-0.131,0.01-0.261,0.04-0.391c0.029-0.13,0.06-0.26,0.109-0.38s0.11-0.229,0.19-0.34c0.07-0.11,0.149-0.21,0.25-0.3      c0.09-0.101,0.189-0.181,0.3-0.25c0.11-0.08,0.22-0.141,0.34-0.19c0.13-0.05,0.25-0.09,0.38-0.11      c0.65-0.13,1.34,0.08,1.801,0.551c0.1,0.09,0.18,0.189,0.25,0.3c0.069,0.11,0.14,0.22,0.189,0.34s0.08,0.25,0.11,0.38      c0.029,0.13,0.04,0.26,0.04,0.391c0,0.13-0.011,0.26-0.04,0.39c-0.021,0.13-0.061,0.26-0.11,0.37      c-0.05,0.12-0.11,0.24-0.189,0.35c-0.07,0.11-0.15,0.21-0.25,0.3c-0.091,0.101-0.19,0.181-0.301,0.25      c-0.109,0.08-0.22,0.141-0.34,0.19s-0.25,0.09-0.38,0.11C16.38,103.02,16.25,103.03,16.12,103.03z"/>
<path class="st44" d="M12.624,97.055c-0.891,0-1.703-0.598-1.936-1.5c-0.961-3.722-1.436-7.611-1.41-11.562      c0.007-0.321,0.189-7.24,3.373-14.78c0.43-1.018,1.604-1.494,2.621-1.064c1.018,0.43,1.494,1.604,1.064,2.621      c-2.89,6.842-3.058,13.216-3.059,13.279c-0.023,3.574,0.409,7.119,1.283,10.506c0.276,1.069-0.367,2.16-1.437,2.437      C12.957,97.034,12.789,97.055,12.624,97.055z"/>
</g>
</g>
<g id="XMLID_1251_">
<path class="st45" d="M67.428,118.677c-1.09-0.834-2.34-1.62-3.682-2.355     c-6.373-3.492-12.43-6.592-20.842-5.188L41.98,110.1c-4.381-1.403-8.102-3.988-9.876-9.972l0,0     c-1.033-7.281,3.89-11.005,9.963-11.005l0.793,0c8.692,0,16.972-3.284,23.654-8.848c9.34-7.777,22.069-8.051,22.069-8.051     c14.533-0.092,25.089,6.802,31.95,13.594c7.246,7.172,7.283,18.876,0.14,26.15c-6.857,6.984-17.458,14.124-32.09,14.031     C88.584,125.999,76.662,125.742,67.428,118.677z" id="XMLID_1249_"/>
<ellipse class="st46" cx="90.913" cy="96.011" id="XMLID_1250_" rx="16.201" ry="10.619"/>
<path class="st43" d="M121.707,106.801c-6.858,6.984-17.458,14.124-32.09,14.031c0,0-11.922-0.257-21.156-7.322     c-1.09-0.834-2.34-1.62-3.682-2.355c-6.373-3.492-13.576-5.183-20.842-5.188l-0.924-0.001     c-5.877-0.047-10.633-4.704-10.885-10.524c-0.671,1.423-1.057,3.007-1.057,4.685v0c0,6.044,4.87,10.957,10.909,11.005     l0.924,0.001c7.266,0.005,14.468,1.697,20.842,5.188c1.342,0.735,2.592,1.521,3.682,2.355c9.234,7.065,21.156,7.322,21.156,7.322     c14.633,0.093,25.233-7.048,32.09-14.031c3.29-3.351,5.037-7.642,5.278-11.996C125.074,102.457,123.673,104.8,121.707,106.801z" id="XMLID_814_"/>
</g>
</g>
</g>
<g id="_x32_3_Blueberry"/>
<g id="_x32_2_Purple_Grapes"/>
<g id="_x32_1_Melon"/>
<g id="_x32_0_Green_Grapes"/>
<g id="_x31_9_Papaya"/>
<g id="_x31_8_Pineapple"/>
<g id="_x31_7_Banana"/>
<g id="_x31_6_Tender_Coconut"/>
<g id="_x31_5_Strawberry"/>
<g id="_x31_4_Dragon_Fruit"/>
<g id="_x31_3_Plum"/>
<g id="_x31_2_Fig"/>
<g id="_x31_1_Peach"/>
<g id="_x31_0_Cherry"/>
<g id="_x30_9_Sapota"/>
<g id="_x30_8_Custard_Apple"/>
<g id="_x30_7_Watermelon"/>
<g id="_x30_6_Mango"/>
<g id="_x30_5_Pear"/>
<g id="_x30_4_Guava"/>
<g id="_x30_3_Pomegranate"/>
<g id="_x30_2_Orange"/>
<g id="_x30_1_Apple"/>
</svg>